<?xml version="1.0" standalone="no"?>
<!DOCTYPE svg PUBLIC "-//W3C//DTD SVG 1.1//EN" "http://www.w3.org/Graphics/SVG/1.1/DTD/svg11.dtd">
<!--Generator: Xara Designer (www.xara.com), SVG filter version: 4.0.0.1-->
<svg stroke-width="0.501" stroke-linejoin="bevel" fill-rule="evenodd" xmlns:xlink="http://www.w3.org/1999/xlink" xmlns="http://www.w3.org/2000/svg" version="1.1" overflow="visible" width="416.694pt" height="232.442pt" viewBox="0 0 416.694 232.442">
 <defs>
  <marker id="DefaultArrow2" markerUnits="strokeWidth" viewBox="0 0 1 1" markerWidth="1" markerHeight="1" overflow="visible" orient="auto">
   <!-- REF_ARROW_STRAIGHT (-2) -->
   <g transform="scale(0.0092592592)">
    <!-- 1/108 -->
    <path d="M -9 54 L -9 -54 L 117 0 z"/>
   </g>
  </marker>
  <marker id="DefaultArrow3" markerUnits="strokeWidth" viewBox="0 0 1 1" markerWidth="1" markerHeight="1" overflow="visible" orient="auto">
   <!-- REF_ARROW_ANGLED -->
   <g transform="scale(0.0092592592)">
    <path d="M -27 54 L -9 0 L -27 -54 L 135 0 z"/>
   </g>
  </marker>
  <marker id="DefaultArrow4" markerUnits="strokeWidth" viewBox="0 0 1 1" markerWidth="1" markerHeight="1" overflow="visible" orient="auto">
   <!-- REF_ARROW_ROUNDED -->
   <g transform="scale(0.0092592592)">
    <path d="M -9,0 L -9,-45 C -9,-51.708 2.808,-56.580 9,-54 L 117,-9 C 120.916,-7.369 126.000,-4.242 126,0 C 126,4.242 120.916,7.369 117,9 L 9,54 C 2.808,56.580 -9,51.708 -9,45 z"/>
   </g>
  </marker>
  <marker id="DefaultArrow5" markerUnits="strokeWidth" viewBox="0 0 1 1" markerWidth="1" markerHeight="1" overflow="visible" orient="auto">
   <!-- REF_ARROW_SPOT -->
   <g transform="scale(0.0092592592)">
    <path d="M -54, 0 C -54,29.807 -29.807,54 0,54 C 29.807,54 54,29.807 54,0 C 54,-29.807 29.807,-54 0,-54 C -29.807,-54 -54,-29.807 -54,0 z"/>
   </g>
  </marker>
  <marker id="DefaultArrow6" markerUnits="strokeWidth" viewBox="0 0 1 1" markerWidth="1" markerHeight="1" overflow="visible" orient="auto">
   <!-- REF_ARROW_DIAMOND -->
   <g transform="scale(0.0092592592)">
    <path d="M -63,0 L 0,63 L 63,0 L 0,-63 z"/>
   </g>
  </marker>
  <marker id="DefaultArrow7" markerUnits="strokeWidth" viewBox="0 0 1 1" markerWidth="1" markerHeight="1" overflow="visible" orient="auto">
   <!-- REF_ARROW_FEATHER -->
   <g transform="scale(0.0092592592)">
    <path d="M 18,-54 L 108,-54 L 63,0 L 108,54 L 18, 54 L -36,0 z"/>
   </g>
  </marker>
  <marker id="DefaultArrow8" markerUnits="strokeWidth" viewBox="0 0 1 1" markerWidth="1" markerHeight="1" overflow="visible" orient="auto">
   <!-- REF_ARROW_FEATHER2 -->
   <g transform="scale(0.0092592592)">
    <path d="M -36,0 L 18,-54 L 54,-54 L 18,-18 L 27,-18 L 63,-54 L 99,-54 L 63,-18 L 72,-18 L 108,-54 L 144,-54 L 90,0 L 144,54 L 108,54 L 72,18 L 63,18 L 99,54 L 63,54 L 27,18 L 18,18 L 54,54 L 18,54 z"/>
   </g>
  </marker>
  <marker id="DefaultArrow9" markerUnits="strokeWidth" viewBox="0 0 1 1" markerWidth="1" markerHeight="1" overflow="visible" orient="auto">
   <!-- REF_ARROW_HOLLOWDIAMOND -->
   <g transform="scale(0.0092592592)">
    <path d="M 0,45 L -45,0 L 0, -45 L 45, 0 z M 0, 63 L-63, 0 L 0, -63 L 63, 0 z"/>
   </g>
  </marker>
  <filter id="StainedFilter">
   <feBlend mode="multiply" in2="BackgroundImage" in="SourceGraphic" result="blend"/>
   <feComposite in="blend" in2="SourceAlpha" operator="in" result="comp"/>
  </filter>
  <filter id="BleachFilter">
   <feBlend mode="screen" in2="BackgroundImage" in="SourceGraphic" result="blend"/>
   <feComposite in="blend" in2="SourceAlpha" operator="in" result="comp"/>
  </filter>
  <filter id="InvertTransparencyBitmapFilter">
   <feComponentTransfer>
    <feFuncR type="gamma" amplitude="1.055" exponent=".416666666" offset="-0.055"/>
    <feFuncG type="gamma" amplitude="1.055" exponent=".416666666" offset="-0.055"/>
    <feFuncB type="gamma" amplitude="1.055" exponent=".416666666" offset="-0.055"/>
   </feComponentTransfer>
   <feComponentTransfer>
    <feFuncR type="linear" slope="-1" intercept="1"/>
    <feFuncG type="linear" slope="-1" intercept="1"/>
    <feFuncB type="linear" slope="-1" intercept="1"/>
    <feFuncA type="linear" slope="1" intercept="0"/>
   </feComponentTransfer>
   <feComponentTransfer>
    <feFuncR type="gamma" amplitude="1" exponent="2.4" offset="0"/>
    <feFuncG type="gamma" amplitude="1" exponent="2.4" offset="0"/>
    <feFuncB type="gamma" amplitude="1" exponent="2.4" offset="0"/>
   </feComponentTransfer>
  </filter>
  <marker id="DefaultArrowScaled" markerUnits="strokeWidth" viewBox="0 0 1 1" markerWidth="2.8800048828125" markerHeight="2.8800048828125" overflow="visible" orient="auto">
   <!-- REF_ARROW_STRAIGHT (-2) -->
   <g transform="scale(0.0092592592)">
    <!-- 1/108 -->
    <path d="M -9 54 L -9 -54 L 117 0 z"/>
   </g>
  </marker>
 </defs>
 <g id="Document" fill="none" stroke="black" font-family="Times New Roman" font-size="16" transform="scale(1 -1)">
  <g id="Spread" transform="translate(0 -232.442)">
   <g id="Layer 1">
    <g id="Group" stroke-linecap="round">
     <g id="Group_1">
      <mask id="TranspMask">
       <rect x="-10%" y="-10%" width="120%" height="120%" fill="#585858" stroke="none"/>
      </mask>
      <g id="Group_2" mask="url(#TranspMask)">
       <path d="M 157.79,175.672 L 157.79,152.07 C 157.79,148.219 160.915,145.094 164.767,145.094 L 190.239,145.094 C 194.09,145.094 197.215,148.219 197.215,152.07 L 197.215,175.672 C 197.215,179.523 194.09,182.649 190.239,182.649 L 164.767,182.649 C 160.915,182.649 157.79,179.523 157.79,175.672 Z" stroke-width="0.714" stroke-linejoin="miter" marker-start="none" marker-end="none" stroke-miterlimit="79.8403193612775"/>
       <g id="Group_3" fill-rule="nonzero" stroke-linejoin="round" stroke="none" stroke-width="0.556" fill="#000000" stroke-miterlimit="79.8403193612775">
        <g id="Group_4">
         <path d="M 182.784,156.787 L 172.221,156.787 L 172.221,170.955 L 182.456,170.955 L 182.456,169.271 L 174.096,169.271 L 174.096,164.943 L 181.914,164.943 L 181.914,163.263 L 174.096,163.263 L 174.096,158.468 L 182.784,158.468 L 182.784,156.787 Z" marker-start="none" marker-end="none"/>
        </g>
       </g>
       <path d="M 208.804,175.672 L 208.804,152.07 C 208.804,148.219 211.929,145.094 215.78,145.094 L 241.25,145.094 C 245.103,145.094 248.228,148.219 248.228,152.07 L 248.228,175.672 C 248.228,179.523 245.103,182.649 241.25,182.649 L 215.78,182.649 C 211.929,182.649 208.804,179.523 208.804,175.672 Z" stroke-width="0.714" stroke-linejoin="miter" marker-start="none" marker-end="none" stroke-miterlimit="79.8403193612775"/>
       <g id="Group_5" fill-rule="nonzero" stroke-linejoin="round" stroke="none" stroke-width="0.556" fill="#000000" stroke-miterlimit="79.8403193612775">
        <g id="Group_6">
         <path d="M 232.434,165.366 L 230.646,165.366 L 228.511,169.56 L 226.375,165.366 L 224.597,165.366 L 227.824,171.319 L 229.207,171.319 L 232.434,165.366 Z" marker-start="none" marker-end="none"/>
        </g>
       </g>
      </g>
      <mask id="TranspMask_1">
       <rect x="-10%" y="-10%" width="120%" height="120%" fill="#585858" stroke="none"/>
      </mask>
      <g id="Group_7" mask="url(#TranspMask_1)">
       <path d="M 208.807,31.353 L 208.807,7.755 C 208.807,3.904 211.932,0.779 215.782,0.779 L 260.084,0.779 C 263.935,0.779 267.06,3.904 267.06,7.755 L 267.06,31.353 C 267.06,35.204 263.935,38.331 260.084,38.331 L 215.782,38.331 C 211.932,38.331 208.807,35.204 208.807,31.353 Z" stroke-width="0.714" stroke-linejoin="miter" marker-start="none" marker-end="none" stroke-miterlimit="79.8403193612775"/>
       <g id="Group_8" fill-rule="nonzero" stroke-linejoin="round" stroke="none" stroke-width="0.556" fill="#000000" stroke-miterlimit="79.8403193612775">
        <g id="Group_9">
         <path d="M 232.925,12.592 L 222.36,12.592 L 222.36,26.761 L 232.594,26.761 L 232.594,25.079 L 224.234,25.079 L 224.234,20.749 L 232.053,20.749 L 232.053,19.067 L 224.234,19.067 L 224.234,14.273 L 232.925,14.273 L 232.925,12.592 Z" marker-start="none" marker-end="none"/>
         <path d="M 238.982,12.35 C 236.18,12.35 234.713,13.452 234.585,15.656 L 236.412,15.656 C 236.425,14.406 237.275,13.782 238.964,13.782 C 239.717,13.782 240.292,13.937 240.689,14.249 C 241.084,14.562 241.283,14.953 241.283,15.424 C 241.283,15.888 241.089,16.214 240.703,16.404 C 240.316,16.595 239.519,16.84 238.31,17.144 C 237.103,17.446 236.22,17.784 235.663,18.158 C 235.106,18.532 234.827,19.19 234.827,20.13 C 234.827,20.98 235.173,21.683 235.866,22.242 C 236.559,22.799 237.485,23.075 238.644,23.075 C 241.331,23.075 242.703,22.12 242.76,20.207 L 240.944,20.207 C 240.88,21.173 240.155,21.656 238.77,21.656 C 238.159,21.656 237.65,21.54 237.247,21.308 C 236.845,21.077 236.644,20.739 236.644,20.295 C 236.644,19.895 236.799,19.606 237.109,19.43 C 237.416,19.253 238.193,19.014 239.432,18.714 C 240.672,18.416 241.594,18.065 242.196,17.666 C 242.797,17.265 243.099,16.576 243.099,15.598 C 243.099,14.663 242.727,13.89 241.983,13.273 C 241.239,12.659 240.239,12.35 238.982,12.35 Z" marker-start="none" marker-end="none"/>
         <path d="M 249.372,12.35 C 247.916,12.35 246.751,12.819 245.877,13.756 C 245.006,14.694 244.567,16.013 244.567,17.714 C 244.567,19.422 245.006,20.742 245.877,21.677 C 246.751,22.61 247.916,23.075 249.372,23.075 C 250.492,23.075 251.428,22.795 252.179,22.227 C 252.929,21.66 253.371,20.842 253.508,19.77 L 251.632,19.77 C 251.608,20.384 251.378,20.852 250.942,21.174 C 250.508,21.496 249.983,21.656 249.372,21.656 C 248.502,21.656 247.796,21.326 247.255,20.666 C 246.714,20.006 246.443,19.022 246.443,17.714 C 246.443,16.413 246.714,15.432 247.255,14.772 C 247.796,14.112 248.502,13.782 249.372,13.782 C 249.983,13.782 250.508,13.943 250.942,14.263 C 251.378,14.586 251.608,15.05 251.632,15.656 L 253.508,15.656 C 253.371,14.586 252.929,13.768 252.179,13.202 C 251.428,12.634 250.492,12.35 249.372,12.35 Z" marker-start="none" marker-end="none"/>
        </g>
       </g>
      </g>
      <mask id="TranspMask_2">
       <rect x="-10%" y="-10%" width="120%" height="120%" fill="#585858" stroke="none"/>
      </mask>
      <g id="Group_10" mask="url(#TranspMask_2)">
       <g id="Group_11" stroke-linejoin="miter" stroke-width="0.714" stroke-miterlimit="79.8403193612775">
        <path d="M 208.804,80.191 L 208.804,56.588 C 208.804,52.738 211.929,49.612 215.781,49.612 L 325.762,49.612 C 329.614,49.612 332.738,52.738 332.738,56.588 L 332.738,80.191 C 332.738,84.042 329.614,87.168 325.762,87.168 L 215.781,87.168 C 211.929,87.168 208.804,84.042 208.804,80.191 Z" marker-start="none" marker-end="none"/>
       </g>
       <g id="Group_12" fill-rule="nonzero" stroke-linejoin="round" stroke="none" stroke-width="0.556" fill="#000000" stroke-miterlimit="79.8403193612775">
        <g id="Group_13">
         <path d="M 249.544,60.569 C 247.546,60.569 246.054,61.015 245.065,61.912 C 244.076,62.809 243.556,63.959 243.504,65.362 L 245.31,65.362 C 245.407,64.305 245.847,63.524 246.631,63.019 C 247.413,62.513 248.36,62.259 249.468,62.259 C 250.518,62.259 251.362,62.476 252.003,62.907 C 252.645,63.339 252.965,63.926 252.965,64.666 C 252.965,65.446 252.633,66.014 251.97,66.367 C 251.306,66.721 250.164,67.071 248.544,67.415 C 246.923,67.76 245.76,68.239 245.055,68.851 C 244.35,69.463 243.997,70.277 243.997,71.296 C 243.997,72.443 244.456,73.383 245.374,74.117 C 246.292,74.852 247.511,75.219 249.032,75.219 C 250.629,75.219 251.918,74.849 252.898,74.107 C 253.878,73.367 254.395,72.32 254.453,70.967 L 252.626,70.967 C 252.44,72.681 251.268,73.537 249.109,73.537 C 248.065,73.537 247.258,73.34 246.684,72.949 C 246.11,72.555 245.823,72.033 245.823,71.383 C 245.823,70.79 246.054,70.344 246.515,70.05 C 246.974,69.753 247.834,69.466 249.094,69.189 C 250.354,68.912 251.354,68.637 252.096,68.366 C 252.836,68.097 253.471,67.677 253.999,67.106 C 254.528,66.539 254.792,65.771 254.792,64.811 C 254.792,63.593 254.308,62.582 253.338,61.777 C 252.368,60.971 251.103,60.569 249.544,60.569 Z" marker-start="none" marker-end="none"/>
         <path d="M 258.986,69.837 C 259.798,70.809 260.775,71.296 261.914,71.296 C 263.254,71.296 264.291,70.821 265.027,69.87 C 265.758,68.92 266.128,67.636 266.128,66.019 C 266.128,64.339 265.717,63.009 264.895,62.033 C 264.074,61.056 263.036,60.569 261.788,60.569 C 260.68,60.569 259.746,60.913 258.986,61.602 L 258.986,56.867 L 257.159,56.867 L 257.159,71.065 L 258.986,71.065 L 258.986,69.837 Z M 258.986,63.245 C 259.765,62.414 260.66,61.999 261.672,61.999 C 262.459,61.999 263.083,62.336 263.546,63.009 C 264.012,63.681 264.242,64.685 264.242,66.019 C 264.242,67.283 264.023,68.24 263.587,68.894 C 263.148,69.546 262.536,69.875 261.749,69.875 C 260.738,69.875 259.815,69.29 258.986,68.117 L 258.986,63.245 Z" marker-start="none" marker-end="none"/>
         <path d="M 274.661,63.509 L 274.661,65.777 L 273.414,65.777 C 270.771,65.777 269.452,65.059 269.452,63.622 C 269.452,63.101 269.647,62.7 270.031,62.419 C 270.418,62.14 270.94,61.999 271.597,61.999 C 272.195,61.999 272.774,62.133 273.335,62.405 C 273.895,62.676 274.338,63.043 274.661,63.509 Z M 274.661,61.864 C 273.733,60.999 272.538,60.569 271.077,60.569 C 270.057,60.569 269.219,60.843 268.562,61.395 C 267.905,61.945 267.577,62.656 267.577,63.525 C 267.577,65.923 269.642,67.121 273.771,67.121 L 274.661,67.121 C 274.661,67.855 274.622,68.389 274.545,68.72 C 274.467,69.052 274.251,69.329 273.895,69.546 C 273.543,69.765 272.979,69.875 272.205,69.875 C 270.581,69.875 269.744,69.295 269.692,68.135 L 267.877,68.135 C 268.011,70.242 269.487,71.296 272.304,71.296 C 273.617,71.296 274.641,71.035 275.375,70.513 C 276.11,69.991 276.477,68.967 276.477,67.44 L 276.477,60.809 L 274.661,60.809 L 274.661,61.864 Z" marker-start="none" marker-end="none"/>
         <path d="M 283.329,60.569 C 281.873,60.569 280.708,61.037 279.835,61.975 C 278.962,62.912 278.525,64.231 278.525,65.932 C 278.525,67.64 278.962,68.962 279.835,69.894 C 280.708,70.827 281.873,71.296 283.329,71.296 C 284.451,71.296 285.386,71.012 286.136,70.445 C 286.887,69.879 287.33,69.06 287.466,67.992 L 285.589,67.992 C 285.566,68.603 285.334,69.071 284.899,69.389 C 284.466,69.714 283.942,69.875 283.329,69.875 C 282.459,69.875 281.754,69.545 281.213,68.885 C 280.671,68.224 280.4,67.242 280.401,65.932 C 280.4,64.631 280.671,63.651 281.213,62.99 C 281.754,62.33 282.459,61.999 283.329,61.999 C 283.942,61.999 284.466,62.159 284.899,62.482 C 285.334,62.803 285.566,63.267 285.589,63.874 L 287.466,63.874 C 287.33,62.803 286.887,61.985 286.136,61.419 C 285.386,60.851 284.451,60.569 283.329,60.569 Z" marker-start="none" marker-end="none"/>
         <path d="M 293.427,60.569 C 291.921,60.569 290.709,61.041 289.794,61.984 C 288.88,62.929 288.421,64.244 288.421,65.932 C 288.421,67.607 288.864,68.92 289.752,69.87 C 290.636,70.821 291.794,71.296 293.224,71.296 C 294.688,71.296 295.854,70.827 296.728,69.894 C 297.601,68.962 298.038,67.64 298.038,65.932 L 298.038,65.497 L 290.316,65.497 C 290.393,64.312 290.72,63.432 291.297,62.859 C 291.873,62.286 292.584,61.999 293.427,61.999 C 294.064,61.999 294.64,62.162 295.153,62.487 C 295.664,62.812 295.934,63.275 295.961,63.874 L 297.845,63.874 C 297.703,62.817 297.225,62.003 296.408,61.429 C 295.594,60.855 294.6,60.569 293.427,60.569 Z M 296.113,66.929 C 295.966,67.914 295.634,68.651 295.119,69.142 C 294.604,69.629 293.972,69.875 293.224,69.875 C 292.497,69.875 291.873,69.632 291.35,69.145 C 290.828,68.659 290.497,67.92 290.354,66.929 L 296.113,66.929 Z" marker-start="none" marker-end="none"/>
        </g>
       </g>
      </g>
      <mask id="TranspMask_3">
       <rect x="-10%" y="-10%" width="120%" height="120%" fill="#585858" stroke="none"/>
      </mask>
      <g id="Group_14" mask="url(#TranspMask_3)">
       <path d="M 157.79,224.689 L 157.79,201.085 C 157.79,197.235 160.915,194.109 164.767,194.109 L 190.239,194.109 C 194.09,194.109 197.215,197.235 197.215,201.085 L 197.215,224.689 C 197.215,228.539 194.09,231.665 190.239,231.665 L 164.767,231.665 C 160.915,231.665 157.79,228.539 157.79,224.689 Z" stroke-width="0.714" stroke-linejoin="miter" marker-start="none" marker-end="none" stroke-miterlimit="79.8403193612775"/>
       <g id="Group_15" fill-rule="nonzero" stroke-linejoin="round" stroke="none" stroke-width="0.556" fill="#000000" stroke-miterlimit="79.8403193612775">
        <g id="Group_16">
         <path d="M 177.564,205.562 C 175.568,205.562 174.075,206.009 173.086,206.904 C 172.098,207.799 171.577,208.95 171.525,210.355 L 173.333,210.355 C 173.43,209.3 173.869,208.517 174.651,208.011 C 175.435,207.506 176.38,207.253 177.486,207.253 C 178.539,207.253 179.383,207.469 180.025,207.9 C 180.666,208.332 180.986,208.917 180.986,209.658 C 180.986,210.44 180.651,211.006 179.991,211.36 C 179.328,211.714 178.186,212.064 176.565,212.408 C 174.946,212.753 173.783,213.231 173.076,213.844 C 172.371,214.456 172.019,215.271 172.017,216.288 C 172.019,217.436 172.478,218.376 173.396,219.11 C 174.314,219.845 175.534,220.212 177.053,220.212 C 178.651,220.212 179.94,219.842 180.919,219.101 C 181.898,218.36 182.418,217.312 182.475,215.96 L 180.648,215.96 C 180.461,217.675 179.289,218.531 177.131,218.531 C 176.088,218.531 175.28,218.334 174.705,217.941 C 174.131,217.548 173.845,217.026 173.845,216.376 C 173.845,215.783 174.075,215.338 174.537,215.042 C 174.997,214.745 175.857,214.46 177.117,214.182 C 178.376,213.904 179.377,213.63 180.117,213.36 C 180.857,213.09 181.493,212.67 182.022,212.097 C 182.549,211.53 182.812,210.764 182.812,209.804 C 182.812,208.586 182.327,207.575 181.357,206.769 C 180.389,205.964 179.125,205.562 177.564,205.562 Z" marker-start="none" marker-end="none"/>
        </g>
       </g>
      </g>
      <mask id="TranspMask_4">
       <rect x="-10%" y="-10%" width="120%" height="120%" fill="#585858" stroke="none"/>
      </mask>
      <g id="Group_17" font-size="22.895" font-family="Arial" mask="url(#TranspMask_4)">
       <path d="M 157.79,79.834 L 157.79,56.231 C 157.79,52.381 160.915,49.255 164.767,49.255 L 190.239,49.255 C 194.09,49.255 197.215,52.381 197.215,56.231 L 197.215,79.834 C 197.215,83.685 194.09,86.81 190.239,86.81 L 164.767,86.81 C 160.915,86.81 157.79,83.685 157.79,79.834 Z" stroke-width="0.714" stroke-linejoin="miter" marker-start="none" marker-end="none" stroke-miterlimit="79.8403193612775"/>
       <text xml:space="preserve" transform="translate(170.817 59.946) scale(1 -1)" stroke="none" stroke-width="0.572" stroke-linejoin="round" fill="#000000" stroke-miterlimit="79.8403193612775"><tspan x="0" y="0">=</tspan></text>
      </g>
      <mask id="TranspMask_5">
       <rect x="-10%" y="-10%" width="120%" height="120%" fill="#585858" stroke="none"/>
      </mask>
      <g id="Group_18" mask="url(#TranspMask_5)">
       <path d="M 157.79,31.355 L 157.79,7.754 C 157.79,3.9 160.915,0.777 164.767,0.777 L 190.239,0.777 C 194.09,0.777 197.215,3.9 197.215,7.754 L 197.215,31.355 C 197.215,35.206 194.09,38.332 190.239,38.332 L 164.767,38.332 C 160.915,38.332 157.79,35.206 157.79,31.355 Z" stroke-width="0.714" stroke-linejoin="miter" marker-start="none" marker-end="none" stroke-miterlimit="79.8403193612775"/>
       <g id="Group_19" fill-rule="nonzero" stroke-linejoin="round" stroke="none" stroke-width="0.556" fill="#000000" stroke-miterlimit="79.8403193612775">
        <g id="Group_20">
         <path d="M 178.155,12.229 C 176.151,12.229 174.551,12.888 173.357,14.206 C 172.161,15.524 171.563,17.306 171.563,19.555 C 171.563,21.803 172.161,23.586 173.357,24.904 C 174.551,26.221 176.151,26.881 178.155,26.881 C 179.695,26.881 181.005,26.464 182.088,25.632 C 183.172,24.802 183.78,23.707 183.914,22.347 L 181.982,22.347 C 181.904,23.243 181.517,23.955 180.817,24.485 C 180.118,25.012 179.237,25.276 178.174,25.276 C 176.737,25.276 175.601,24.782 174.763,23.792 C 173.926,22.8 173.506,21.39 173.506,19.555 C 173.506,17.724 173.921,16.314 174.753,15.322 C 175.584,14.33 176.713,13.834 178.136,13.834 C 179.244,13.834 180.14,14.105 180.821,14.645 C 181.507,15.185 181.892,15.959 181.982,16.965 L 183.914,16.965 C 183.78,15.457 183.187,14.292 182.137,13.465 C 181.086,12.642 179.759,12.229 178.155,12.229 Z" marker-start="none" marker-end="none"/>
        </g>
       </g>
      </g>
      <mask id="TranspMask_6">
       <rect x="-10%" y="-10%" width="120%" height="120%" fill="#585858" stroke="none"/>
      </mask>
      <g id="Group_21" mask="url(#TranspMask_6)">
       <g id="Group_22" stroke-linejoin="miter" stroke-width="0.714" stroke-miterlimit="79.8403193612775">
        <path d="M 157.791,127.725 L 157.791,104.122 C 157.791,100.272 160.915,97.144 164.768,97.144 L 274.749,97.144 C 278.599,97.144 281.727,100.272 281.727,104.122 L 281.727,127.725 C 281.727,131.575 278.599,134.7 274.749,134.7 L 164.768,134.7 C 160.915,134.7 157.791,131.575 157.791,127.725 Z" marker-start="none" marker-end="none"/>
       </g>
       <g id="Group_23" fill-rule="nonzero" stroke-linejoin="round" stroke="none" stroke-width="0.556" fill="#000000" stroke-miterlimit="79.8403193612775">
        <g id="Group_24">
         <path d="M 183.082,112.46 C 183.082,111.134 182.632,110.116 181.73,109.407 C 180.827,108.697 179.516,108.343 177.795,108.343 L 172.491,108.343 L 172.491,122.51 L 177.535,122.51 C 179.043,122.51 180.228,122.188 181.091,121.544 C 181.954,120.9 182.386,120.016 182.386,118.896 C 182.386,117.53 181.707,116.519 180.347,115.861 C 181.261,115.63 181.947,115.203 182.402,114.581 C 182.855,113.959 183.082,113.253 183.082,112.46 Z M 174.364,116.578 L 177.515,116.578 C 178.553,116.578 179.317,116.743 179.806,117.076 C 180.295,117.406 180.54,117.959 180.54,118.731 C 180.54,119.428 180.301,119.951 179.826,120.302 C 179.348,120.653 178.519,120.829 177.341,120.829 L 174.364,120.829 L 174.364,116.578 Z M 174.364,110.026 L 177.777,110.026 C 180.018,110.026 181.138,110.836 181.138,112.46 C 181.138,113.304 180.88,113.921 180.361,114.312 C 179.843,114.7 178.901,114.896 177.535,114.896 L 174.364,114.896 L 174.364,110.026 Z" marker-start="none" marker-end="none"/>
         <path d="M 191.944,111.04 L 191.944,113.31 L 190.697,113.31 C 188.055,113.31 186.734,112.592 186.734,111.156 C 186.734,110.636 186.928,110.232 187.315,109.952 C 187.702,109.671 188.223,109.532 188.882,109.532 C 189.479,109.532 190.059,109.667 190.62,109.937 C 191.179,110.209 191.622,110.576 191.944,111.04 Z M 191.944,109.395 C 191.017,108.533 189.822,108.1 188.358,108.1 C 187.34,108.1 186.504,108.377 185.846,108.928 C 185.188,109.479 184.86,110.189 184.86,111.059 C 184.86,113.454 186.925,114.656 191.054,114.656 L 191.944,114.656 C 191.944,115.388 191.905,115.921 191.828,116.253 C 191.75,116.584 191.534,116.86 191.179,117.079 C 190.826,117.298 190.262,117.408 189.49,117.408 C 187.866,117.408 187.027,116.828 186.976,115.668 L 185.16,115.668 C 185.296,117.774 186.77,118.83 189.586,118.83 C 190.9,118.83 191.924,118.568 192.659,118.047 C 193.392,117.523 193.76,116.5 193.76,114.972 L 193.76,108.343 L 191.944,108.343 L 191.944,109.395 Z" marker-start="none" marker-end="none"/>
         <path d="M 200.613,108.1 C 199.157,108.1 197.99,108.57 197.118,109.507 C 196.246,110.446 195.809,111.764 195.809,113.466 C 195.809,115.172 196.246,116.493 197.118,117.427 C 197.99,118.362 199.157,118.83 200.613,118.83 C 201.733,118.83 202.669,118.544 203.419,117.977 C 204.171,117.411 204.613,116.593 204.747,115.523 L 202.873,115.523 C 202.847,116.137 202.616,116.603 202.182,116.926 C 201.748,117.247 201.224,117.408 200.613,117.408 C 199.742,117.408 199.037,117.079 198.497,116.417 C 197.954,115.757 197.684,114.773 197.684,113.466 C 197.684,112.164 197.954,111.183 198.497,110.522 C 199.037,109.862 199.742,109.532 200.613,109.532 C 201.224,109.532 201.748,109.693 202.182,110.016 C 202.616,110.336 202.847,110.801 202.873,111.408 L 204.747,111.408 C 204.613,110.336 204.171,109.52 203.419,108.951 C 202.669,108.385 201.733,108.1 200.613,108.1 Z" marker-start="none" marker-end="none"/>
         <path d="M 214.827,108.343 L 212.655,108.343 L 209.319,113.552 L 208.179,112.421 L 208.179,108.343 L 206.353,108.343 L 206.353,122.51 L 208.179,122.51 L 208.179,114.48 L 212.131,118.597 L 214.431,118.597 L 210.547,114.778 L 214.827,108.343 Z" marker-start="none" marker-end="none"/>
         <path d="M 219.91,108.1 C 217.11,108.1 215.643,109.203 215.514,111.408 L 217.34,111.408 C 217.354,110.156 218.204,109.532 219.892,109.532 C 220.647,109.532 221.221,109.688 221.616,110.001 C 222.013,110.312 222.211,110.703 222.211,111.176 C 222.211,111.638 222.018,111.966 221.632,112.156 C 221.245,112.347 220.447,112.592 219.24,112.896 C 218.031,113.197 217.15,113.536 216.592,113.911 C 216.034,114.283 215.756,114.94 215.756,115.88 C 215.756,116.731 216.103,117.436 216.793,117.993 C 217.486,118.549 218.412,118.83 219.573,118.83 C 222.26,118.83 223.632,117.872 223.688,115.958 L 221.873,115.958 C 221.808,116.926 221.083,117.408 219.7,117.408 C 219.086,117.408 218.58,117.293 218.176,117.06 C 217.774,116.828 217.574,116.49 217.574,116.044 C 217.574,115.647 217.728,115.358 218.035,115.18 C 218.346,115.003 219.122,114.766 220.361,114.466 C 221.601,114.166 222.521,113.817 223.125,113.417 C 223.726,113.017 224.028,112.328 224.028,111.349 C 224.028,110.416 223.656,109.64 222.912,109.025 C 222.168,108.41 221.167,108.1 219.91,108.1 Z" marker-start="none" marker-end="none"/>
         <path d="M 227.971,117.369 C 228.783,118.342 229.758,118.83 230.899,118.83 C 232.239,118.83 233.276,118.353 234.011,117.403 C 234.746,116.452 235.114,115.169 235.114,113.552 C 235.114,111.869 234.702,110.543 233.88,109.566 C 233.059,108.59 232.023,108.1 230.773,108.1 C 229.665,108.1 228.732,108.445 227.971,109.135 L 227.971,104.401 L 226.145,104.401 L 226.145,118.597 L 227.971,118.597 L 227.971,117.369 Z M 227.971,110.778 C 228.75,109.947 229.646,109.532 230.658,109.532 C 231.444,109.532 232.069,109.868 232.533,110.543 C 232.996,111.216 233.227,112.218 233.227,113.552 C 233.227,114.816 233.009,115.773 232.571,116.428 C 232.134,117.081 231.521,117.408 230.735,117.408 C 229.723,117.408 228.803,116.822 227.971,115.649 L 227.971,110.778 Z" marker-start="none" marker-end="none"/>
         <path d="M 243.646,111.04 L 243.646,113.31 L 242.399,113.31 C 239.757,113.31 238.436,112.592 238.436,111.156 C 238.436,110.636 238.63,110.232 239.017,109.952 C 239.403,109.671 239.925,109.532 240.583,109.532 C 241.18,109.532 241.761,109.667 242.324,109.937 C 242.882,110.209 243.323,110.576 243.646,111.04 Z M 243.646,109.395 C 242.717,108.533 241.523,108.1 240.059,108.1 C 239.042,108.1 238.205,108.377 237.549,108.928 C 236.891,109.479 236.562,110.189 236.562,111.059 C 236.562,113.454 238.627,114.656 242.756,114.656 L 243.646,114.656 C 243.646,115.388 243.607,115.921 243.53,116.253 C 243.453,116.584 243.236,116.86 242.882,117.079 C 242.527,117.298 241.964,117.408 241.19,117.408 C 239.566,117.408 238.73,116.828 238.679,115.668 L 236.862,115.668 C 236.999,117.774 238.473,118.83 241.287,118.83 C 242.602,118.83 243.626,118.568 244.361,118.047 C 245.095,117.523 245.462,116.5 245.462,114.972 L 245.462,108.343 L 243.646,108.343 L 243.646,109.395 Z" marker-start="none" marker-end="none"/>
         <path d="M 252.314,108.1 C 250.858,108.1 249.694,108.57 248.82,109.507 C 247.948,110.446 247.511,111.764 247.511,113.466 C 247.511,115.172 247.948,116.493 248.82,117.427 C 249.694,118.362 250.858,118.83 252.314,118.83 C 253.434,118.83 254.371,118.544 255.121,117.977 C 255.872,117.411 256.315,116.593 256.45,115.523 L 254.575,115.523 C 254.55,116.137 254.319,116.603 253.884,116.926 C 253.45,117.247 252.928,117.408 252.314,117.408 C 251.445,117.408 250.739,117.079 250.198,116.417 C 249.656,115.757 249.386,114.773 249.386,113.466 C 249.386,112.164 249.656,111.183 250.198,110.522 C 250.739,109.862 251.445,109.532 252.314,109.532 C 252.928,109.532 253.45,109.693 253.884,110.016 C 254.319,110.336 254.55,110.801 254.575,111.408 L 256.45,111.408 C 256.315,110.336 255.872,109.52 255.121,108.951 C 254.371,108.385 253.434,108.1 252.314,108.1 Z" marker-start="none" marker-end="none"/>
         <path d="M 262.413,108.1 C 260.905,108.1 259.693,108.573 258.779,109.517 C 257.865,110.461 257.408,111.777 257.408,113.466 C 257.408,115.14 257.85,116.452 258.736,117.403 C 259.622,118.353 260.78,118.83 262.21,118.83 C 263.671,118.83 264.839,118.362 265.713,117.427 C 266.587,116.493 267.023,115.172 267.023,113.466 L 267.023,113.03 L 259.301,113.03 C 259.379,111.847 259.706,110.966 260.282,110.392 C 260.858,109.818 261.569,109.532 262.413,109.532 C 263.051,109.532 263.625,109.696 264.138,110.019 C 264.65,110.344 264.92,110.807 264.944,111.408 L 266.829,111.408 C 266.688,110.35 266.209,109.536 265.394,108.962 C 264.579,108.388 263.587,108.1 262.413,108.1 Z M 265.1,114.46 C 264.951,115.446 264.62,116.186 264.104,116.674 C 263.59,117.163 262.956,117.408 262.21,117.408 C 261.483,117.408 260.856,117.163 260.335,116.678 C 259.813,116.192 259.482,115.452 259.34,114.46 L 265.1,114.46 Z" marker-start="none" marker-end="none"/>
        </g>
       </g>
      </g>
      <mask id="TranspMask_7">
       <rect x="-10%" y="-10%" width="120%" height="120%" fill="#585858" stroke="none"/>
      </mask>
      <g id="Group_25" mask="url(#TranspMask_7)">
       <g id="Group_26" stroke-linejoin="miter" stroke-width="0.714" stroke-miterlimit="79.8403193612775">
        <path d="M 291.264,127.725 L 291.264,104.121 C 291.264,100.272 294.391,97.144 298.241,97.144 L 359.032,97.144 C 362.882,97.144 366.008,100.272 366.008,104.121 L 366.008,127.725 C 366.008,131.575 362.882,134.701 359.032,134.701 L 298.241,134.701 C 294.391,134.701 291.264,131.575 291.264,127.725 Z" marker-start="none" marker-end="none"/>
       </g>
       <g id="Group_27" fill-rule="nonzero" stroke-linejoin="round" stroke="none" stroke-width="0.556" fill="#000000" stroke-miterlimit="79.8403193612775">
        <g id="Group_28">
         <path d="M 301.115,122.51 L 305.607,122.51 C 310.42,122.51 312.825,120.174 312.825,115.504 C 312.825,110.73 310.42,108.343 305.607,108.343 L 301.115,108.343 L 301.115,122.51 Z M 302.987,110.026 L 305.568,110.026 C 307.623,110.026 309.025,110.503 309.773,111.46 C 310.519,112.416 310.893,113.766 310.893,115.504 C 310.893,117.199 310.522,118.511 309.776,119.437 C 309.033,120.364 307.63,120.829 305.568,120.829 L 302.987,120.829 L 302.987,110.026 Z" marker-start="none" marker-end="none"/>
         <path d="M 319.524,108.1 C 318.016,108.1 316.804,108.573 315.888,109.517 C 314.975,110.461 314.516,111.777 314.516,113.466 C 314.516,115.14 314.96,116.452 315.847,117.403 C 316.732,118.353 317.89,118.83 319.32,118.83 C 320.784,118.83 321.95,118.362 322.822,117.427 C 323.696,116.493 324.132,115.172 324.132,113.466 L 324.132,113.03 L 316.412,113.03 C 316.489,111.847 316.817,110.966 317.392,110.392 C 317.969,109.818 318.679,109.532 319.524,109.532 C 320.161,109.532 320.736,109.696 321.248,110.019 C 321.76,110.344 322.029,110.807 322.055,111.408 L 323.939,111.408 C 323.798,110.35 323.319,109.536 322.505,108.962 C 321.689,108.388 320.696,108.1 319.524,108.1 Z M 322.21,114.46 C 322.062,115.446 321.73,116.186 321.214,116.674 C 320.699,117.163 320.068,117.408 319.32,117.408 C 318.594,117.408 317.968,117.163 317.445,116.678 C 316.924,116.192 316.592,115.452 316.45,114.46 L 322.21,114.46 Z" marker-start="none" marker-end="none"/>
         <path d="M 327.998,108.343 L 326.172,108.343 L 326.172,122.51 L 327.998,122.51 L 327.998,108.343 Z" marker-start="none" marker-end="none"/>
         <path d="M 335.043,108.1 C 333.536,108.1 332.324,108.573 331.409,109.517 C 330.495,110.461 330.037,111.777 330.037,113.466 C 330.037,115.14 330.48,116.452 331.366,117.403 C 332.253,118.353 333.411,118.83 334.84,118.83 C 336.303,118.83 337.47,118.362 338.343,117.427 C 339.216,116.493 339.653,115.172 339.653,113.466 L 339.653,113.03 L 331.931,113.03 C 332.009,111.847 332.337,110.966 332.913,110.392 C 333.488,109.818 334.199,109.532 335.043,109.532 C 335.681,109.532 336.257,109.696 336.768,110.019 C 337.28,110.344 337.549,110.807 337.575,111.408 L 339.46,111.408 C 339.317,110.35 338.839,109.536 338.025,108.962 C 337.209,108.388 336.216,108.1 335.043,108.1 Z M 337.73,114.46 C 337.581,115.446 337.249,116.186 336.733,116.674 C 336.219,117.163 335.588,117.408 334.84,117.408 C 334.111,117.408 333.488,117.163 332.964,116.678 C 332.444,116.192 332.111,115.452 331.97,114.46 L 337.73,114.46 Z" marker-start="none" marker-end="none"/>
         <path d="M 345.673,108.323 C 345.274,108.247 344.839,108.208 344.369,108.208 C 343.621,108.208 343.074,108.34 342.726,108.609 C 342.378,108.875 342.161,109.219 342.078,109.638 C 341.995,110.057 341.953,110.627 341.953,111.349 L 341.953,117.166 L 340.686,117.166 L 340.686,118.597 L 341.953,118.597 L 341.953,121.148 L 343.769,121.148 L 343.769,118.597 L 345.431,118.597 L 345.431,117.166 L 343.769,117.166 L 343.769,111.252 C 343.769,110.55 343.857,110.103 344.035,109.914 C 344.211,109.723 344.455,109.628 344.765,109.628 C 345.08,109.628 345.381,109.654 345.673,109.706 L 345.673,108.323 Z" marker-start="none" marker-end="none"/>
         <path d="M 351.549,108.1 C 350.042,108.1 348.832,108.573 347.915,109.517 C 347.002,110.461 346.544,111.777 346.544,113.466 C 346.544,115.14 346.986,116.452 347.873,117.403 C 348.757,118.353 349.916,118.83 351.346,118.83 C 352.81,118.83 353.976,118.362 354.849,117.427 C 355.723,116.493 356.158,115.172 356.158,113.466 L 356.158,113.03 L 348.437,113.03 C 348.515,111.847 348.842,110.966 349.419,110.392 C 349.995,109.818 350.705,109.532 351.549,109.532 C 352.187,109.532 352.762,109.696 353.274,110.019 C 353.787,110.344 354.056,110.807 354.08,111.408 L 355.966,111.408 C 355.824,110.35 355.346,109.536 354.532,108.962 C 353.715,108.388 352.722,108.1 351.549,108.1 Z M 354.236,114.46 C 354.089,115.446 353.755,116.186 353.24,116.674 C 352.725,117.163 352.095,117.408 351.346,117.408 C 350.618,117.408 349.994,117.163 349.472,116.678 C 348.95,116.192 348.618,115.452 348.476,114.46 L 354.236,114.46 Z" marker-start="none" marker-end="none"/>
        </g>
       </g>
      </g>
      <mask id="TranspMask_8">
       <rect x="-10%" y="-10%" width="120%" height="120%" fill="#585858" stroke="none"/>
      </mask>
      <g id="Group_29" mask="url(#TranspMask_8)">
       <g id="Group_30" fill-rule="nonzero" stroke-linejoin="round" stroke="none" stroke-width="0.556" fill="#000000" stroke-miterlimit="79.8403193612775">
        <g id="Group_31">
         <g id="Group_32">
          <path d="M 369.302,60.379 L 358.738,60.379 L 358.738,74.546 L 368.973,74.546 L 368.973,72.866 L 360.614,72.866 L 360.614,68.536 L 368.432,68.536 L 368.432,66.855 L 360.614,66.855 L 360.614,62.06 L 369.302,62.06 L 369.302,60.379 Z" marker-start="none" marker-end="none"/>
          <path d="M 373.525,69.329 C 374.434,70.354 375.455,70.865 376.589,70.865 C 378.903,70.865 380.058,69.605 380.058,67.086 L 380.058,60.379 L 378.231,60.379 L 378.231,67.009 C 378.232,67.846 378.082,68.449 377.782,68.815 C 377.484,69.183 376.989,69.367 376.308,69.367 C 375.381,69.367 374.453,68.819 373.525,67.724 L 373.525,60.379 L 371.699,60.379 L 371.699,70.633 L 373.525,70.633 L 373.525,69.329 Z" marker-start="none" marker-end="none"/>
          <path d="M 386.688,60.36 C 386.288,60.283 385.853,60.244 385.383,60.244 C 384.635,60.244 384.088,60.377 383.741,60.645 C 383.392,60.913 383.176,61.256 383.092,61.675 C 383.01,62.093 382.967,62.664 382.967,63.386 L 382.967,69.204 L 381.7,69.204 L 381.7,70.633 L 382.967,70.633 L 382.967,73.184 L 384.783,73.184 L 384.783,70.633 L 386.446,70.633 L 386.446,69.204 L 384.783,69.204 L 384.783,63.289 C 384.783,62.586 384.872,62.14 385.05,61.95 C 385.225,61.76 385.47,61.664 385.78,61.664 C 386.094,61.664 386.397,61.691 386.688,61.742 L 386.688,60.36 Z" marker-start="none" marker-end="none"/>
          <path d="M 392.563,60.138 C 391.056,60.138 389.844,60.61 388.928,61.554 C 388.015,62.499 387.557,63.814 387.557,65.502 C 387.557,67.177 387.998,68.489 388.886,69.44 C 389.772,70.39 390.928,70.865 392.358,70.865 C 393.823,70.865 394.989,70.397 395.863,69.464 C 396.735,68.532 397.173,67.21 397.173,65.502 L 397.173,65.067 L 389.451,65.067 C 389.528,63.881 389.856,63.003 390.432,62.429 C 391.008,61.855 391.718,61.569 392.563,61.569 C 393.201,61.569 393.776,61.732 394.287,62.055 C 394.8,62.382 395.069,62.844 395.095,63.443 L 396.98,63.443 C 396.839,62.387 396.359,61.573 395.544,60.999 C 394.729,60.425 393.736,60.138 392.563,60.138 Z M 395.251,66.499 C 395.103,67.484 394.77,68.22 394.254,68.71 C 393.74,69.2 393.108,69.444 392.358,69.446 C 391.631,69.444 391.006,69.202 390.485,68.715 C 389.965,68.229 389.632,67.489 389.491,66.499 L 395.251,66.499 Z" marker-start="none" marker-end="none"/>
          <path d="M 404.536,68.971 C 404.279,69.047 403.907,69.087 403.425,69.087 C 402.497,69.087 401.701,68.6 401.039,67.629 L 401.039,60.379 L 399.212,60.379 L 399.212,70.633 L 401.039,70.633 L 401.039,69.204 C 401.805,70.311 402.694,70.865 403.705,70.865 C 403.963,70.865 404.24,70.839 404.536,70.787 L 404.536,68.971 Z" marker-start="none" marker-end="none"/>
         </g>
        </g>
       </g>
       <path d="M 346.504,56.588 L 346.504,80.191 C 346.504,84.042 349.322,87.168 352.796,87.168 L 375.211,87.168 L 375.211,124.078 C 375.211,127.929 378.065,131.055 381.58,131.055 L 408.617,131.055 C 412.135,131.055 414.989,127.929 414.989,124.078 L 414.989,80.196 C 414.989,80.194 414.989,80.193 414.989,80.191 L 414.989,56.588 C 414.989,52.738 412.17,49.612 408.697,49.612 L 352.796,49.612 C 349.322,49.612 346.504,52.738 346.504,56.588 Z" stroke-width="0.714" stroke-linejoin="miter" marker-start="none" marker-end="none" stroke-miterlimit="79.8403193612775"/>
      </g>
      <mask id="TranspMask_9">
       <rect x="-10%" y="-10%" width="120%" height="120%" fill="#191919" stroke="none"/>
      </mask>
      <g id="Group_33" stroke-linejoin="miter" stroke="#00614b" stroke-width="0.714" fill="#00614b" stroke-miterlimit="79.8403193612775" mask="url(#TranspMask_9)">
       <path d="M 208.805,224.689 L 208.805,201.089 C 208.805,197.236 211.931,194.111 215.781,194.111 L 260.085,194.111 C 263.937,194.111 267.062,197.236 267.062,201.089 L 267.062,224.689 C 267.062,228.539 263.937,231.665 260.085,231.665 L 215.781,231.665 C 211.931,231.665 208.805,228.539 208.805,224.689 Z" marker-start="none" marker-end="none"/>
      </g>
      <mask id="TranspMask_10">
       <rect x="-10%" y="-10%" width="120%" height="120%" fill="#191919" stroke="none"/>
      </mask>
      <g id="Group_34" stroke-linejoin="miter" stroke="#00614b" stroke-width="0.714" fill="#00614b" stroke-miterlimit="79.8403193612775" mask="url(#TranspMask_10)">
       <g id="Group_35">
        <path d="M 257.996,175.672 L 257.996,152.069 C 257.996,148.219 261.123,145.094 264.974,145.094 L 359.028,145.094 C 362.881,145.094 366.006,148.219 366.006,152.069 L 366.006,175.672 C 366.006,179.523 362.881,182.649 359.028,182.649 L 264.974,182.649 C 261.123,182.649 257.996,179.523 257.996,175.672 Z" marker-start="none" marker-end="none"/>
       </g>
      </g>
      <mask id="TranspMask_11">
       <rect x="-10%" y="-10%" width="120%" height="120%" fill="#191919" stroke="none"/>
      </mask>
      <g id="Group_36" stroke-linejoin="miter" stroke="#00614b" stroke-width="0.714" fill="#00614b" stroke-miterlimit="79.8403193612775" mask="url(#TranspMask_11)">
       <path d="M 375.564,175.672 L 375.564,152.069 C 375.564,148.218 378.69,145.094 382.541,145.094 L 408.012,145.094 C 411.863,145.094 414.989,148.218 414.989,152.069 L 414.989,175.672 C 414.989,179.522 411.863,182.649 408.012,182.649 L 382.541,182.649 C 378.69,182.649 375.564,179.522 375.564,175.672 Z" marker-start="none" marker-end="none"/>
      </g>
      <mask id="TranspMask_12">
       <rect x="-10%" y="-10%" width="120%" height="120%" fill="#191919" stroke="none"/>
      </mask>
      <g id="Group_37" stroke-linejoin="miter" stroke="#00614b" stroke-width="0.714" fill="#00614b" stroke-miterlimit="79.8403193612775" mask="url(#TranspMask_12)">
       <path d="M 278.065,224.689 L 278.065,201.085 C 278.065,197.235 281.192,194.109 285.044,194.109 L 310.513,194.109 C 314.365,194.109 317.49,197.235 317.49,201.085 L 317.49,224.689 C 317.49,228.539 314.365,231.665 310.513,231.665 L 285.044,231.665 C 281.192,231.665 278.065,228.539 278.065,224.689 Z" marker-start="none" marker-end="none"/>
      </g>
      <mask id="TranspMask_13">
       <rect x="-10%" y="-10%" width="120%" height="120%" fill="#191919" stroke="none"/>
      </mask>
      <g id="Group_38" stroke-linejoin="miter" stroke="#00614b" stroke-width="0.714" fill="#00614b" stroke-miterlimit="79.8403193612775" mask="url(#TranspMask_13)">
       <path d="M 326.581,224.45 L 326.581,200.849 C 326.581,196.997 329.707,193.871 333.559,193.871 L 359.028,193.871 C 362.881,193.871 366.006,196.997 366.006,200.849 L 366.006,224.45 C 366.006,228.3 362.881,231.427 359.028,231.427 L 333.559,231.427 C 329.707,231.427 326.581,228.3 326.581,224.45 Z" marker-start="none" marker-end="none"/>
      </g>
      <mask id="TranspMask_14">
       <rect x="-10%" y="-10%" width="120%" height="120%" fill="#191919" stroke="none"/>
      </mask>
      <g id="Group_39" stroke-linejoin="miter" stroke="#00614b" stroke-width="0.714" fill="#00614b" stroke-miterlimit="79.8403193612775" mask="url(#TranspMask_14)">
       <path d="M 375.564,224.689 L 375.564,201.085 C 375.564,197.235 378.69,194.109 382.541,194.109 L 408.012,194.109 C 411.863,194.109 414.989,197.235 414.989,201.085 L 414.989,224.689 C 414.989,228.539 411.863,231.665 408.012,231.665 L 382.541,231.665 C 378.69,231.665 375.564,228.539 375.564,224.689 Z" marker-start="none" marker-end="none"/>
      </g>
      <mask id="TranspMask_15">
       <rect x="-10%" y="-10%" width="120%" height="120%" fill="#191919" stroke="none"/>
      </mask>
      <g id="Group_40" stroke-linejoin="miter" stroke="#00614b" stroke-width="0.714" fill="#00614b" stroke-miterlimit="79.8403193612775" mask="url(#TranspMask_15)">
       <path d="M 278.065,31.355 L 278.065,7.754 C 278.065,3.9 281.192,0.776 285.044,0.776 L 310.513,0.776 C 314.365,0.776 317.49,3.9 317.49,7.754 L 317.49,31.355 C 317.49,35.206 314.365,38.332 310.513,38.332 L 285.044,38.332 C 281.192,38.332 278.065,35.206 278.065,31.355 Z" marker-start="none" marker-end="none"/>
      </g>
      <mask id="TranspMask_16">
       <rect x="-10%" y="-10%" width="120%" height="120%" fill="#191919" stroke="none"/>
      </mask>
      <g id="Group_41" stroke-linejoin="miter" stroke="#00614b" stroke-width="0.714" fill="#00614b" stroke-miterlimit="79.8403193612775" mask="url(#TranspMask_16)">
       <path d="M 326.581,31.355 L 326.581,7.754 C 326.581,3.9 329.707,0.776 333.559,0.776 L 359.028,0.776 C 362.881,0.776 366.006,3.9 366.006,7.754 L 366.006,31.355 C 366.006,35.206 362.881,38.332 359.028,38.332 L 333.559,38.332 C 329.707,38.332 326.581,35.206 326.581,31.355 Z" marker-start="none" marker-end="none"/>
      </g>
      <mask id="TranspMask_17">
       <rect x="-10%" y="-10%" width="120%" height="120%" fill="#191919" stroke="none"/>
      </mask>
      <g id="Group_42" stroke-linejoin="miter" stroke="#00614b" stroke-width="0.714" fill="#00614b" stroke-miterlimit="79.8403193612775" mask="url(#TranspMask_17)">
       <path d="M 375.564,31.355 L 375.564,7.754 C 375.564,3.9 378.69,0.776 382.541,0.776 L 408.012,0.776 C 411.863,0.776 414.989,3.9 414.989,7.754 L 414.989,31.355 C 414.989,35.206 411.863,38.332 408.012,38.332 L 382.541,38.332 C 378.69,38.332 375.564,35.206 375.564,31.355 Z" marker-start="none" marker-end="none"/>
      </g>
     </g>
     <g id="Group_43" stroke-width="0.802" fill-rule="nonzero" stroke-linejoin="round" stroke="none" fill="#000000" stroke-miterlimit="79.8403193612775">
      <g id="Group_44" stroke-opacity="0.349020" fill-opacity="0.349020">
       <path d="M 68.245,61.227 L 60.042,61.227 L 63.491,77.543 L 71.694,77.543 L 71.337,75.836 L 65.021,75.836 L 63.928,70.601 L 69.809,70.601 L 69.485,68.905 L 63.58,68.905 L 62.307,62.922 L 68.613,62.922 L 68.245,61.227 Z" marker-start="none" marker-end="none" fill-opacity="0.349020"/>
       <path d="M 77.922,73.682 C 78.621,73.682 79.236,73.493 79.767,73.117 C 80.3,72.742 80.704,72.216 80.977,71.537 L 81.123,71.537 L 81.874,73.459 L 83.267,73.459 L 79.517,55.735 L 77.665,55.735 L 78.792,61.092 C 78.857,61.427 79.071,62.248 79.429,63.559 L 79.34,63.559 C 78.631,62.658 77.944,62.007 77.273,61.605 C 76.605,61.202 75.912,61.003 75.199,61.003 C 74.157,61.003 73.339,61.365 72.749,62.092 C 72.157,62.815 71.862,63.83 71.862,65.133 C 71.862,66.71 72.131,68.167 72.671,69.509 C 73.21,70.847 73.939,71.877 74.859,72.6 C 75.777,73.321 76.797,73.682 77.922,73.682 Z M 75.779,62.555 C 76.464,62.555 77.17,62.897 77.9,63.581 C 78.627,64.266 79.217,65.147 79.669,66.226 C 80.119,67.304 80.344,68.421 80.344,69.574 C 80.344,70.356 80.141,70.974 79.735,71.427 C 79.33,71.881 78.763,72.109 78.033,72.107 C 77.282,72.109 76.577,71.794 75.923,71.166 C 75.27,70.536 74.749,69.669 74.36,68.563 C 73.973,67.459 73.78,66.301 73.78,65.089 C 73.78,63.399 74.445,62.555 75.779,62.555 Z" marker-start="none" marker-end="none" fill-opacity="0.349020"/>
       <path d="M 88.993,73.459 L 87.318,65.702 C 87.185,65.037 87.118,64.523 87.118,64.15 C 87.118,63.086 87.665,62.555 88.759,62.555 C 89.412,62.555 90.058,62.777 90.689,63.224 C 91.32,63.67 91.881,64.31 92.364,65.144 C 92.848,65.976 93.215,66.982 93.469,68.156 L 94.585,73.459 L 96.438,73.459 L 93.859,61.227 L 92.306,61.227 L 92.552,63.492 L 92.421,63.492 C 91.69,62.562 90.995,61.913 90.332,61.55 C 89.67,61.185 88.985,61.003 88.278,61.003 C 87.326,61.003 86.578,61.262 86.035,61.778 C 85.492,62.296 85.22,63.034 85.221,63.994 C 85.22,64.456 85.302,65.094 85.468,65.914 L 87.096,73.459 L 88.993,73.459 Z" marker-start="none" marker-end="none" fill-opacity="0.349020"/>
       <path d="M 104.283,73.682 C 104.968,73.682 105.577,73.497 106.114,73.129 C 106.649,72.762 107.067,72.231 107.364,71.537 L 107.487,71.537 L 108.235,73.459 L 109.65,73.459 L 107.05,61.227 L 105.567,61.227 L 105.857,63.559 L 105.768,63.559 C 104.435,61.855 103.033,61.003 101.56,61.003 C 100.525,61.003 99.713,61.371 99.126,62.107 C 98.538,62.844 98.245,63.853 98.245,65.133 C 98.245,66.68 98.509,68.116 99.036,69.441 C 99.565,70.765 100.294,71.803 101.224,72.554 C 102.154,73.306 103.177,73.682 104.283,73.682 Z M 102.163,62.555 C 102.884,62.555 103.602,62.899 104.317,63.586 C 105.031,64.275 105.61,65.171 106.058,66.276 C 106.502,67.381 106.727,68.489 106.727,69.597 C 106.727,70.363 106.519,70.974 106.101,71.427 C 105.685,71.881 105.138,72.109 104.461,72.107 C 103.687,72.109 102.968,71.789 102.302,71.147 C 101.637,70.509 101.114,69.641 100.733,68.549 C 100.354,67.454 100.165,66.301 100.165,65.089 C 100.165,64.24 100.34,63.605 100.688,63.185 C 101.038,62.765 101.53,62.555 102.163,62.555 Z" marker-start="none" marker-end="none" fill-opacity="0.349020"/>
       <path d="M 112.575,61.227 L 110.701,61.227 L 114.409,78.593 L 116.281,78.593 L 112.575,61.227 Z" marker-start="none" marker-end="none" fill-opacity="0.349020"/>
       <path d="M 124.07,64.696 C 124.07,63.536 123.659,62.63 122.838,61.978 C 122.016,61.328 120.856,61.003 119.361,61.003 C 118.103,61.003 116.969,61.26 115.957,61.772 L 115.957,63.536 C 116.478,63.224 117.039,62.983 117.642,62.811 C 118.246,62.64 118.803,62.555 119.316,62.555 C 120.253,62.555 120.96,62.74 121.437,63.112 C 121.913,63.483 122.15,63.96 122.15,64.541 C 122.15,64.965 122.021,65.321 121.762,65.612 C 121.5,65.902 120.937,66.301 120.076,66.807 C 119.107,67.349 118.424,67.883 118.021,68.403 C 117.62,68.923 117.419,69.541 117.419,70.253 C 117.419,71.281 117.796,72.109 118.546,72.739 C 119.298,73.367 120.288,73.682 121.516,73.682 C 122.787,73.682 124.013,73.406 125.197,72.856 L 124.594,71.326 L 123.97,71.605 C 123.219,71.924 122.4,72.085 121.516,72.085 C 120.823,72.085 120.279,71.923 119.884,71.6 C 119.491,71.277 119.294,70.859 119.294,70.344 C 119.294,69.927 119.426,69.571 119.691,69.273 C 119.956,68.974 120.498,68.592 121.326,68.123 C 122.12,67.677 122.692,67.294 123.038,66.973 C 123.383,66.655 123.642,66.309 123.816,65.942 C 123.986,65.574 124.07,65.159 124.07,64.696 Z" marker-start="none" marker-end="none" fill-opacity="0.349020"/>
      </g>
     </g>
     <g id="Group_45" fill-rule="nonzero" stroke-linejoin="round" stroke="none" stroke-width="0.891" fill="#000000" stroke-miterlimit="79.8403193612775">
      <g id="Group_46" stroke-opacity="0.349020" fill-opacity="0.349020">
       <path d="M 39.919,158.065 L 31.714,158.065 L 35.164,174.381 L 43.367,174.381 L 43.01,172.677 L 36.693,172.677 L 35.597,167.439 L 41.481,167.439 L 41.157,165.745 L 35.253,165.745 L 33.98,159.762 L 40.287,159.762 L 39.919,158.065 Z" marker-start="none" marker-end="none" fill-opacity="0.349020"/>
       <path d="M 47.653,162.909 L 43.79,158.065 L 41.616,158.065 L 46.916,164.37 L 44.25,170.299 L 46.146,170.299 L 48.088,165.7 L 51.771,170.299 L 53.936,170.299 L 48.86,164.282 L 51.672,158.065 L 49.794,158.065 L 47.653,162.909 Z" marker-start="none" marker-end="none" fill-opacity="0.349020"/>
       <path d="M 59.449,157.842 C 58.728,157.842 58.095,158.029 57.553,158.4 C 57.008,158.772 56.588,159.294 56.29,159.963 L 56.18,159.963 L 56.135,159.539 C 56.113,159.352 56.074,159.091 56.018,158.758 C 55.961,158.423 55.536,156.36 54.74,152.575 L 52.886,152.575 L 56.637,170.299 L 58.188,170.299 L 57.897,167.966 L 57.987,167.966 C 59.319,169.654 60.704,170.498 62.139,170.498 C 63.16,170.498 63.961,170.136 64.548,169.411 C 65.136,168.686 65.432,167.667 65.432,166.358 C 65.432,164.78 65.174,163.333 64.662,162.017 C 64.149,160.699 63.438,159.675 62.53,158.941 C 61.623,158.209 60.596,157.842 59.449,157.842 Z M 61.524,168.947 C 60.812,168.948 60.083,168.593 59.344,167.886 C 58.604,167.18 58.014,166.292 57.581,165.219 C 57.146,164.148 56.927,163.051 56.927,161.927 C 56.927,161.108 57.135,160.482 57.546,160.047 C 57.959,159.612 58.558,159.393 59.337,159.393 C 60.074,159.393 60.761,159.694 61.398,160.297 C 62.034,160.9 62.545,161.758 62.931,162.871 C 63.319,163.982 63.512,165.165 63.512,166.415 C 63.512,168.103 62.852,168.948 61.524,168.947 Z" marker-start="none" marker-end="none" fill-opacity="0.349020"/>
       <path d="M 73.736,170.455 C 75.148,170.455 76.264,170.034 77.083,169.197 C 77.902,168.36 78.311,167.21 78.311,165.745 C 78.311,164.346 78.042,163.025 77.507,161.783 C 76.972,160.539 76.246,159.579 75.331,158.902 C 74.416,158.226 73.382,157.888 72.229,157.888 C 70.8,157.888 69.679,158.308 68.867,159.148 C 68.059,159.989 67.651,161.138 67.651,162.596 C 67.651,164.011 67.925,165.339 68.468,166.587 C 69.01,167.834 69.743,168.79 70.666,169.457 C 71.589,170.122 72.611,170.455 73.736,170.455 Z M 76.369,166.001 C 76.369,166.857 76.137,167.55 75.671,168.083 C 75.207,168.614 74.573,168.88 73.78,168.88 C 72.969,168.88 72.241,168.605 71.598,168.054 C 70.954,167.502 70.456,166.739 70.103,165.759 C 69.749,164.782 69.572,163.694 69.572,162.496 C 69.572,161.522 69.808,160.767 70.282,160.236 C 70.753,159.705 71.432,159.438 72.318,159.438 C 73.092,159.438 73.788,159.71 74.405,160.252 C 75.022,160.796 75.505,161.568 75.85,162.57 C 76.197,163.57 76.369,164.714 76.369,166.001 Z" marker-start="none" marker-end="none" fill-opacity="0.349020"/>
       <path d="M 87.519,158.065 L 89.17,165.79 C 89.319,166.562 89.394,167.1 89.394,167.396 C 89.394,167.865 89.262,168.24 88.998,168.522 C 88.734,168.806 88.313,168.948 87.73,168.947 C 87.069,168.948 86.424,168.724 85.793,168.276 C 85.165,167.831 84.612,167.195 84.132,166.369 C 83.652,165.543 83.288,164.543 83.041,163.367 L 81.915,158.065 L 80.041,158.065 L 82.653,170.299 L 84.204,170.299 L 83.958,168.034 L 84.07,168.034 C 84.785,168.939 85.474,169.582 86.14,169.957 C 86.806,170.333 87.496,170.52 88.211,170.52 C 89.156,170.52 89.902,170.263 90.448,169.746 C 90.996,169.229 91.267,168.504 91.267,167.575 C 91.267,166.986 91.184,166.317 91.013,165.565 L 89.416,158.065 L 87.519,158.065 Z" marker-start="none" marker-end="none" fill-opacity="0.349020"/>
       <path d="M 98.064,157.842 C 96.697,157.842 95.621,158.248 94.841,159.06 C 94.057,159.87 93.668,160.995 93.668,162.43 C 93.668,163.828 93.946,165.17 94.498,166.454 C 95.054,167.737 95.789,168.736 96.704,169.449 C 97.619,170.164 98.627,170.52 99.728,170.52 C 100.868,170.52 101.722,170.274 102.295,169.778 C 102.869,169.283 103.154,168.593 103.154,167.708 C 103.154,166.369 102.538,165.318 101.303,164.553 C 100.065,163.792 98.301,163.412 96.002,163.412 L 95.634,163.412 L 95.588,162.519 C 95.588,161.544 95.817,160.785 96.275,160.236 C 96.732,159.689 97.439,159.415 98.402,159.415 C 98.869,159.415 99.351,159.484 99.846,159.617 C 100.342,159.75 100.955,159.996 101.692,160.353 L 101.692,158.724 C 100.993,158.397 100.378,158.168 99.84,158.038 C 99.305,157.907 98.713,157.842 98.064,157.842 Z M 99.618,168.925 C 98.852,168.925 98.13,168.576 97.458,167.876 C 96.783,167.176 96.268,166.205 95.912,164.963 L 96.045,164.963 C 97.743,164.963 99.041,165.185 99.945,165.627 C 100.85,166.07 101.303,166.713 101.303,167.552 C 101.303,167.948 101.166,168.274 100.895,168.533 C 100.622,168.794 100.197,168.925 99.618,168.925 Z" marker-start="none" marker-end="none" fill-opacity="0.349020"/>
       <path d="M 111.983,158.065 L 113.635,165.79 C 113.785,166.562 113.858,167.1 113.858,167.396 C 113.858,167.865 113.726,168.24 113.461,168.522 C 113.197,168.806 112.775,168.948 112.195,168.947 C 111.532,168.948 110.887,168.724 110.259,168.276 C 109.628,167.831 109.076,167.195 108.597,166.369 C 108.116,165.543 107.753,164.543 107.508,163.367 L 106.38,158.065 L 104.504,158.065 L 107.117,170.299 L 108.669,170.299 L 108.42,168.034 L 108.534,168.034 C 109.248,168.939 109.939,169.582 110.605,169.957 C 111.272,170.333 111.962,170.52 112.675,170.52 C 113.62,170.52 114.367,170.263 114.914,169.746 C 115.46,169.229 115.733,168.504 115.733,167.575 C 115.733,166.986 115.648,166.317 115.475,165.565 L 113.88,158.065 L 111.983,158.065 Z" marker-start="none" marker-end="none" fill-opacity="0.349020"/>
       <path d="M 121.447,159.37 C 121.855,159.37 122.393,159.469 123.053,159.661 L 123.053,158.222 C 122.801,158.117 122.488,158.029 122.117,157.954 C 121.745,157.88 121.447,157.842 121.222,157.842 C 120.293,157.842 119.581,158.064 119.087,158.506 C 118.592,158.949 118.345,159.609 118.345,160.486 C 118.345,160.978 118.411,161.537 118.544,162.161 L 119.961,168.88 L 118.043,168.88 L 118.199,169.695 L 120.263,170.565 L 121.66,173.111 L 122.753,173.111 L 122.139,170.299 L 125.197,170.299 L 124.906,168.88 L 121.86,168.88 L 120.42,162.139 C 120.288,161.492 120.218,161 120.218,160.666 C 120.218,160.249 120.326,159.928 120.542,159.706 C 120.758,159.484 121.06,159.37 121.447,159.37 Z" marker-start="none" marker-end="none" fill-opacity="0.349020"/>
      </g>
     </g>
     <g id="Group_47" fill-rule="nonzero" stroke-linejoin="round" stroke="none" stroke-width="0.891" fill="#000000" stroke-miterlimit="79.8403193612775">
      <g id="Group_48" stroke-opacity="0.349020" fill-opacity="0.349020">
       <path d="M 11.104,212.087 C 11.102,210.517 10.581,209.299 9.536,208.434 C 8.489,207.566 7.018,207.134 5.121,207.134 C 4.332,207.134 3.638,207.187 3.039,207.294 C 2.441,207.402 1.876,207.582 1.348,207.836 L 1.348,209.735 C 2.554,209.108 3.819,208.795 5.143,208.795 C 6.35,208.795 7.306,209.076 8.01,209.638 C 8.719,210.2 9.072,210.973 9.072,211.954 C 9.072,212.534 8.876,213.046 8.487,213.49 C 8.096,213.931 7.368,214.454 6.303,215.057 C 5.179,215.689 4.4,216.321 3.964,216.953 C 3.53,217.587 3.313,218.334 3.313,219.198 C 3.313,220.589 3.804,221.722 4.787,222.595 C 5.769,223.47 7.059,223.907 8.659,223.907 C 9.396,223.907 10.081,223.836 10.719,223.695 C 11.355,223.554 12.025,223.313 12.733,222.97 L 11.996,221.295 C 11.505,221.579 10.954,221.802 10.344,221.966 C 9.734,222.13 9.173,222.211 8.659,222.211 C 7.662,222.211 6.859,221.952 6.254,221.435 C 5.648,220.918 5.345,220.217 5.345,219.332 C 5.345,218.929 5.407,218.586 5.535,218.299 C 5.662,218.012 5.861,217.742 6.138,217.49 C 6.413,217.236 6.94,216.881 7.722,216.429 C 8.816,215.776 9.554,215.263 9.937,214.888 C 10.319,214.517 10.611,214.106 10.808,213.658 C 11.004,213.207 11.102,212.684 11.104,212.087 Z" marker-start="none" marker-end="none" fill-opacity="0.349020"/>
       <path d="M 19.54,219.811 C 20.241,219.811 20.857,219.623 21.388,219.248 C 21.92,218.873 22.324,218.345 22.599,217.668 L 22.744,217.668 L 23.49,219.588 L 24.889,219.588 L 21.138,201.864 L 19.285,201.864 L 20.412,207.223 C 20.479,207.557 20.691,208.38 21.048,209.688 L 20.958,209.688 C 20.252,208.788 19.563,208.138 18.893,207.735 C 18.224,207.333 17.533,207.134 16.818,207.134 C 15.776,207.134 14.959,207.495 14.367,208.221 C 13.776,208.945 13.481,209.962 13.481,211.263 C 13.481,212.84 13.75,214.298 14.289,215.637 C 14.83,216.976 15.559,218.006 16.479,218.729 C 17.396,219.45 18.417,219.811 19.54,219.811 Z M 17.398,208.684 C 18.082,208.684 18.791,209.026 19.518,209.711 C 20.248,210.396 20.837,211.279 21.287,212.354 C 21.737,213.436 21.962,214.55 21.962,215.706 C 21.962,216.488 21.76,217.103 21.357,217.556 C 20.949,218.011 20.383,218.237 19.65,218.237 C 18.901,218.237 18.199,217.924 17.543,217.295 C 16.887,216.668 16.367,215.799 15.981,214.696 C 15.594,213.59 15.4,212.431 15.4,211.217 C 15.4,209.527 16.066,208.684 17.398,208.684 Z" marker-start="none" marker-end="none" fill-opacity="0.349020"/>
       <path d="M 30.611,219.588 L 28.937,211.831 C 28.805,211.171 28.737,210.651 28.737,210.278 C 28.737,209.217 29.283,208.684 30.377,208.684 C 31.033,208.684 31.676,208.909 32.309,209.353 C 32.941,209.801 33.499,210.44 33.983,211.273 C 34.466,212.107 34.835,213.112 35.088,214.286 L 36.204,219.588 L 38.056,219.588 L 35.478,207.356 L 33.927,207.356 L 34.172,209.622 L 34.037,209.622 C 33.309,208.693 32.614,208.044 31.951,207.68 C 31.289,207.315 30.605,207.134 29.897,207.134 C 28.946,207.134 28.197,207.391 27.654,207.908 C 27.11,208.425 26.84,209.164 26.84,210.125 C 26.84,210.586 26.923,211.225 27.086,212.044 L 28.715,219.588 L 30.611,219.588 Z" marker-start="none" marker-end="none" fill-opacity="0.349020"/>
       <path d="M 45.901,219.811 C 46.585,219.811 47.197,219.626 47.732,219.259 C 48.267,218.891 48.685,218.361 48.982,217.668 L 49.105,217.668 L 49.853,219.588 L 51.271,219.588 L 48.671,207.356 L 47.186,207.356 L 47.475,209.688 L 47.386,209.688 C 46.054,207.984 44.652,207.134 43.181,207.134 C 42.145,207.134 41.334,207.501 40.746,208.237 C 40.158,208.975 39.864,209.983 39.864,211.263 C 39.864,212.809 40.128,214.247 40.657,215.57 C 41.183,216.895 41.914,217.933 42.845,218.685 C 43.774,219.435 44.792,219.811 45.901,219.811 Z M 43.782,208.684 C 44.504,208.684 45.222,209.029 45.935,209.717 C 46.65,210.405 47.231,211.3 47.677,212.406 C 48.124,213.51 48.346,214.617 48.346,215.725 C 48.346,216.493 48.138,217.103 47.721,217.556 C 47.304,218.011 46.758,218.237 46.081,218.237 C 45.307,218.237 44.587,217.918 43.921,217.277 C 43.255,216.638 42.731,215.771 42.353,214.68 C 41.975,213.582 41.784,212.431 41.784,211.217 C 41.784,210.371 41.957,209.735 42.308,209.314 C 42.659,208.894 43.152,208.684 43.782,208.684 Z" marker-start="none" marker-end="none" fill-opacity="0.349020"/>
       <path d="M 60.078,219.811 C 60.588,219.811 61.036,219.759 61.416,219.653 L 61.015,217.981 C 60.619,218.077 60.23,218.126 59.843,218.126 C 59.164,218.126 58.531,217.902 57.94,217.457 C 57.346,217.01 56.83,216.39 56.389,215.6 C 55.944,214.806 55.618,213.926 55.411,212.959 L 54.216,207.356 L 52.342,207.356 L 54.953,219.588 L 56.505,219.588 L 56.259,217.322 L 56.372,217.322 C 56.906,218.029 57.348,218.536 57.698,218.847 C 58.048,219.154 58.415,219.392 58.797,219.56 C 59.182,219.727 59.607,219.811 60.078,219.811 Z" marker-start="none" marker-end="none" fill-opacity="0.349020"/>
       <path d="M 65.769,207.134 C 64.401,207.134 63.324,207.538 62.545,208.349 C 61.763,209.159 61.371,210.284 61.371,211.72 C 61.371,213.119 61.649,214.46 62.204,215.743 C 62.757,217.027 63.493,218.024 64.409,218.741 C 65.323,219.454 66.331,219.811 67.434,219.811 C 68.57,219.811 69.427,219.563 69.999,219.07 C 70.573,218.575 70.86,217.884 70.86,216.998 C 70.86,215.66 70.242,214.608 69.007,213.844 C 67.771,213.083 66.004,212.702 63.704,212.702 L 63.336,212.702 L 63.292,211.809 C 63.292,210.835 63.52,210.074 63.978,209.527 C 64.436,208.981 65.145,208.706 66.104,208.706 C 66.574,208.706 67.055,208.774 67.55,208.909 C 68.044,209.041 68.66,209.287 69.397,209.644 L 69.397,208.013 C 68.698,207.687 68.081,207.458 67.543,207.328 C 67.008,207.198 66.417,207.134 65.769,207.134 Z M 67.321,218.216 C 66.554,218.216 65.836,217.866 65.161,217.167 C 64.488,216.467 63.972,215.494 63.616,214.253 L 63.75,214.253 C 65.446,214.253 66.747,214.474 67.65,214.917 C 68.555,215.359 69.007,216.002 69.007,216.843 C 69.007,217.236 68.871,217.565 68.599,217.825 C 68.327,218.086 67.902,218.216 67.321,218.216 Z" marker-start="none" marker-end="none" fill-opacity="0.349020"/>
       <path d="M 81.786,214.143 L 80.346,207.356 L 78.447,207.356 L 81.897,223.673 L 85.468,223.673 C 88.783,223.673 90.446,222.31 90.446,219.588 C 90.446,216.998 89.078,215.328 86.339,214.577 L 89.006,207.356 L 86.929,207.356 L 84.596,214.143 L 81.786,214.143 Z M 83.425,222.01 C 82.667,218.334 82.235,216.255 82.131,215.771 L 84.006,215.771 C 85.441,215.771 86.547,216.088 87.321,216.719 C 88.094,217.352 88.482,218.258 88.482,219.443 C 88.482,220.345 88.231,220.997 87.728,221.402 C 87.225,221.807 86.409,222.01 85.279,222.01 L 83.425,222.01 Z" marker-start="none" marker-end="none" fill-opacity="0.349020"/>
       <path d="M 97.668,219.743 C 99.081,219.743 100.196,219.325 101.015,218.488 C 101.832,217.652 102.244,216.499 102.244,215.035 C 102.244,213.637 101.974,212.315 101.441,211.072 C 100.904,209.83 100.178,208.87 99.264,208.192 C 98.348,207.515 97.314,207.177 96.16,207.177 C 94.734,207.177 93.612,207.596 92.8,208.438 C 91.99,209.279 91.582,210.43 91.582,211.886 C 91.582,213.301 91.856,214.631 92.399,215.877 C 92.943,217.124 93.676,218.078 94.598,218.744 C 95.521,219.41 96.544,219.743 97.668,219.743 Z M 100.301,215.293 C 100.301,216.147 100.07,216.841 99.602,217.372 C 99.139,217.904 98.509,218.171 97.712,218.171 C 96.9,218.171 96.174,217.895 95.53,217.344 C 94.886,216.795 94.387,216.03 94.034,215.052 C 93.681,214.073 93.505,212.984 93.505,211.786 C 93.505,210.811 93.743,210.058 94.213,209.527 C 94.685,208.995 95.365,208.729 96.25,208.729 C 97.024,208.729 97.721,209 98.336,209.542 C 98.954,210.086 99.436,210.86 99.782,211.861 C 100.128,212.861 100.301,214.004 100.301,215.293 Z" marker-start="none" marker-end="none" fill-opacity="0.349020"/>
       <path d="M 110.491,219.743 C 111.906,219.743 113.02,219.325 113.839,218.488 C 114.658,217.652 115.068,216.499 115.068,215.035 C 115.068,213.637 114.799,212.315 114.263,211.072 C 113.727,209.83 113.002,208.87 112.087,208.192 C 111.171,207.515 110.137,207.177 108.983,207.177 C 107.556,207.177 106.436,207.596 105.623,208.438 C 104.814,209.279 104.406,210.43 104.406,211.886 C 104.406,213.301 104.68,214.631 105.223,215.877 C 105.765,217.124 106.499,218.078 107.423,218.744 C 108.345,219.41 109.367,219.743 110.491,219.743 Z M 113.124,215.293 C 113.124,216.147 112.891,216.841 112.427,217.372 C 111.963,217.904 111.332,218.171 110.536,218.171 C 109.724,218.171 108.997,217.895 108.354,217.344 C 107.709,216.795 107.211,216.03 106.858,215.052 C 106.503,214.073 106.328,212.984 106.328,211.786 C 106.328,210.811 106.564,210.058 107.037,209.527 C 107.508,208.995 108.188,208.729 109.074,208.729 C 109.848,208.729 110.542,209 111.161,209.542 C 111.78,210.086 112.26,210.86 112.606,211.861 C 112.952,212.861 113.124,214.004 113.124,215.293 Z" marker-start="none" marker-end="none" fill-opacity="0.349020"/>
       <path d="M 120.547,208.662 C 120.955,208.662 121.491,208.758 122.153,208.952 L 122.153,207.512 C 121.9,207.407 121.588,207.319 121.217,207.243 C 120.845,207.169 120.547,207.134 120.322,207.134 C 119.393,207.134 118.681,207.353 118.184,207.797 C 117.692,208.241 117.443,208.9 117.443,209.778 C 117.443,210.269 117.509,210.827 117.644,211.452 L 119.061,218.171 L 117.142,218.171 L 117.299,218.985 L 119.363,219.856 L 120.758,222.401 L 121.853,222.401 L 121.239,219.588 L 124.297,219.588 L 124.006,218.171 L 120.96,218.171 L 119.52,211.43 C 119.388,210.783 119.318,210.29 119.318,209.956 C 119.318,209.539 119.426,209.22 119.642,208.997 C 119.858,208.774 120.16,208.662 120.547,208.662 Z" marker-start="none" marker-end="none" fill-opacity="0.349020"/>
      </g>
     </g>
     <g id="Group_49" fill-rule="nonzero" stroke-linejoin="round" stroke="none" stroke-width="0.891" fill="#000000" stroke-miterlimit="79.8403193612775">
      <g id="Group_50" stroke-opacity="0.349020" fill-opacity="0.349020">
       <path d="M 51.753,25.48 C 50.456,25.48 49.299,25.12 48.278,24.398 C 47.253,23.673 46.442,22.618 45.843,21.223 C 45.244,19.827 44.944,18.308 44.944,16.663 C 44.944,15.273 45.307,14.161 46.031,13.332 C 46.759,12.502 47.757,12.089 49.032,12.089 C 50.065,12.089 51.261,12.299 52.622,12.725 L 52.622,11.061 C 51.985,10.831 51.372,10.665 50.793,10.559 C 50.212,10.455 49.512,10.401 48.694,10.401 C 46.894,10.401 45.479,10.957 44.453,12.071 C 43.427,13.186 42.914,14.699 42.913,16.619 C 42.914,18.56 43.306,20.367 44.091,22.038 C 44.875,23.708 45.929,24.984 47.255,25.86 C 48.579,26.738 50.078,27.177 51.753,27.177 C 53.22,27.177 54.512,26.878 55.636,26.284 L 54.866,24.711 C 53.84,25.225 52.802,25.48 51.753,25.48 Z" marker-start="none" marker-end="none" fill-opacity="0.349020"/>
       <path d="M 57.121,10.625 L 55.246,10.625 L 58.951,27.992 L 60.826,27.992 L 57.121,10.625 Z" marker-start="none" marker-end="none" fill-opacity="0.349020"/>
       <path d="M 65.905,10.401 C 64.536,10.401 63.46,10.808 62.678,11.619 C 61.898,12.431 61.507,13.553 61.507,14.989 C 61.507,16.388 61.784,17.73 62.34,19.013 C 62.893,20.297 63.628,21.296 64.542,22.008 C 65.458,22.723 66.466,23.081 67.567,23.081 C 68.707,23.081 69.562,22.833 70.135,22.337 C 70.706,21.843 70.993,21.153 70.993,20.27 C 70.993,18.928 70.377,17.878 69.141,17.117 C 67.906,16.352 66.141,15.971 63.838,15.971 L 63.47,15.971 L 63.427,15.079 C 63.427,14.105 63.657,13.343 64.114,12.798 C 64.572,12.25 65.278,11.975 66.24,11.975 C 66.71,11.975 67.19,12.045 67.683,12.176 C 68.18,12.311 68.796,12.557 69.53,12.913 L 69.53,11.285 C 68.833,10.957 68.215,10.73 67.68,10.597 C 67.143,10.467 66.552,10.401 65.905,10.401 Z M 67.455,21.485 C 66.69,21.485 65.97,21.136 65.296,20.436 C 64.623,19.736 64.108,18.766 63.75,17.523 L 63.885,17.523 C 65.581,17.523 66.881,17.743 67.785,18.187 C 68.689,18.629 69.141,19.272 69.141,20.111 C 69.141,20.506 69.005,20.833 68.734,21.093 C 68.462,21.353 68.036,21.485 67.455,21.485 Z" marker-start="none" marker-end="none" fill-opacity="0.349020"/>
       <path d="M 78.817,23.081 C 79.502,23.081 80.112,22.897 80.647,22.528 C 81.183,22.16 81.601,21.63 81.899,20.938 L 82.021,20.938 L 82.769,22.858 L 84.185,22.858 L 81.585,10.625 L 80.101,10.625 L 80.391,12.959 L 80.303,12.959 C 78.969,11.255 77.567,10.401 76.095,10.401 C 75.06,10.401 74.249,10.77 73.662,11.508 C 73.073,12.245 72.78,13.252 72.78,14.535 C 72.78,16.08 73.044,17.516 73.57,18.84 C 74.1,20.163 74.829,21.202 75.759,21.953 C 76.689,22.703 77.707,23.081 78.817,23.081 Z M 76.697,11.955 C 77.419,11.955 78.137,12.298 78.849,12.987 C 79.566,13.675 80.145,14.571 80.592,15.676 C 81.04,16.781 81.261,17.887 81.261,18.996 C 81.261,19.763 81.054,20.371 80.637,20.823 C 80.219,21.281 79.673,21.509 78.999,21.507 C 78.222,21.509 77.502,21.188 76.839,20.547 C 76.171,19.908 75.647,19.041 75.269,17.946 C 74.889,16.853 74.7,15.7 74.7,14.487 C 74.7,13.639 74.874,13.005 75.224,12.585 C 75.573,12.165 76.065,11.955 76.697,11.955 Z" marker-start="none" marker-end="none" fill-opacity="0.349020"/>
       <path d="M 92.992,23.081 C 93.505,23.081 93.951,23.027 94.331,22.925 L 93.929,21.252 C 93.535,21.348 93.145,21.393 92.758,21.393 C 92.08,21.393 91.446,21.172 90.856,20.725 C 90.261,20.28 89.745,19.66 89.303,18.868 C 88.86,18.076 88.533,17.193 88.325,16.227 L 87.131,10.625 L 85.256,10.625 L 87.869,22.858 L 89.42,22.858 L 89.174,20.593 L 89.288,20.593 C 89.821,21.298 90.264,21.807 90.614,22.116 C 90.964,22.423 91.329,22.663 91.714,22.829 C 92.096,22.998 92.523,23.081 92.992,23.081 Z" marker-start="none" marker-end="none" fill-opacity="0.349020"/>
       <path d="M 108.66,15.817 L 103.127,15.817 L 100.391,10.625 L 98.283,10.625 L 107.199,26.944 L 109.141,26.944 L 111.194,10.625 L 109.295,10.625 L 108.66,15.817 Z M 108.46,17.557 L 108.07,20.893 C 107.89,22.227 107.782,23.527 107.747,24.799 C 107.469,24.145 107.171,23.492 106.848,22.846 C 106.522,22.2 105.595,20.436 104.063,17.557 L 108.46,17.557 Z" marker-start="none" marker-end="none" fill-opacity="0.349020"/>
       <path d="M 114.789,10.625 L 112.915,10.625 L 116.619,27.992 L 118.494,27.992 L 114.789,10.625 Z" marker-start="none" marker-end="none" fill-opacity="0.349020"/>
       <path d="M 120.593,10.625 L 118.717,10.625 L 122.423,27.992 L 124.297,27.992 L 120.593,10.625 Z" marker-start="none" marker-end="none" fill-opacity="0.349020"/>
      </g>
     </g>
     <g id="Group_51" fill-rule="nonzero" stroke-linejoin="round" stroke="none" stroke-width="0.891" fill="#000000" stroke-miterlimit="79.8403193612775">
      <g id="Group_52" stroke-opacity="0.349020" fill-opacity="0.349020">
       <path d="M 21.923,125.138 C 20.628,125.138 19.471,124.777 18.447,124.054 C 17.423,123.334 16.611,122.275 16.015,120.88 C 15.414,119.485 15.115,117.965 15.115,116.321 C 15.115,114.929 15.477,113.819 16.203,112.99 C 16.928,112.16 17.929,111.744 19.201,111.744 C 20.234,111.744 21.434,111.959 22.794,112.381 L 22.794,110.719 C 22.154,110.488 21.543,110.32 20.962,110.215 C 20.382,110.112 19.682,110.06 18.865,110.06 C 17.064,110.06 15.65,110.616 14.624,111.728 C 13.598,112.841 13.085,114.359 13.085,116.277 C 13.085,118.218 13.476,120.024 14.262,121.695 C 15.047,123.364 16.101,124.639 17.425,125.517 C 18.751,126.395 20.249,126.835 21.923,126.835 C 23.39,126.835 24.685,126.537 25.808,125.94 L 25.036,124.369 C 24.01,124.881 22.972,125.138 21.923,125.138 Z" marker-start="none" marker-end="none" fill-opacity="0.349020"/>
       <path d="M 27.291,110.283 L 25.416,110.283 L 29.122,127.647 L 30.996,127.647 L 27.291,110.283 Z" marker-start="none" marker-end="none" fill-opacity="0.349020"/>
       <path d="M 36.075,110.06 C 34.706,110.06 33.631,110.466 32.85,111.276 C 32.069,112.087 31.678,113.211 31.678,114.647 C 31.678,116.047 31.955,117.385 32.509,118.671 C 33.064,119.953 33.799,120.951 34.713,121.669 C 35.627,122.381 36.635,122.739 37.737,122.739 C 38.877,122.739 39.733,122.491 40.305,121.996 C 40.878,121.5 41.165,120.813 41.165,119.927 C 41.165,118.586 40.546,117.536 39.313,116.773 C 38.077,116.01 36.31,115.628 34.009,115.628 L 33.643,115.628 L 33.597,114.737 C 33.597,113.762 33.826,113.001 34.284,112.454 C 34.739,111.906 35.45,111.633 36.41,111.633 C 36.878,111.633 37.36,111.7 37.854,111.836 C 38.35,111.968 38.967,112.214 39.703,112.571 L 39.703,110.941 C 39.003,110.614 38.386,110.385 37.851,110.254 C 37.314,110.125 36.722,110.06 36.075,110.06 Z M 37.627,121.143 C 36.86,121.143 36.14,120.792 35.467,120.092 C 34.793,119.394 34.277,118.422 33.921,117.18 L 34.055,117.18 C 35.752,117.18 37.051,117.401 37.956,117.844 C 38.86,118.287 39.313,118.929 39.313,119.771 C 39.313,120.164 39.177,120.491 38.904,120.752 C 38.632,121.012 38.207,121.143 37.627,121.143 Z" marker-start="none" marker-end="none" fill-opacity="0.349020"/>
       <path d="M 48.988,122.739 C 49.673,122.739 50.283,122.553 50.817,122.186 C 51.355,121.817 51.77,121.287 52.069,120.596 L 52.191,120.596 L 52.939,122.515 L 54.356,122.515 L 51.756,110.283 L 50.272,110.283 L 50.562,112.616 L 50.473,112.616 C 49.14,110.911 47.738,110.06 46.266,110.06 C 45.231,110.06 44.421,110.429 43.832,111.163 C 43.244,111.901 42.95,112.909 42.95,114.189 C 42.95,115.736 43.215,117.173 43.742,118.496 C 44.27,119.822 45,120.859 45.93,121.611 C 46.86,122.363 47.879,122.739 48.988,122.739 Z M 46.867,111.611 C 47.589,111.611 48.307,111.955 49.021,112.644 C 49.736,113.333 50.316,114.228 50.763,115.333 C 51.209,116.439 51.43,117.545 51.43,118.654 C 51.43,119.42 51.223,120.031 50.806,120.484 C 50.391,120.939 49.844,121.165 49.166,121.165 C 48.393,121.165 47.673,120.845 47.008,120.206 C 46.34,119.566 45.818,118.699 45.44,117.605 C 45.058,116.51 44.871,115.358 44.871,114.145 C 44.871,113.297 45.044,112.662 45.395,112.241 C 45.744,111.82 46.236,111.611 46.867,111.611 Z" marker-start="none" marker-end="none" fill-opacity="0.349020"/>
       <path d="M 63.163,122.739 C 63.675,122.739 64.122,122.685 64.501,122.582 L 64.1,120.908 C 63.705,121.004 63.315,121.053 62.928,121.053 C 62.25,121.053 61.615,120.83 61.025,120.386 C 60.433,119.937 59.916,119.318 59.473,118.526 C 59.03,117.734 58.704,116.854 58.496,115.886 L 57.302,110.283 L 55.427,110.283 L 58.039,122.515 L 59.591,122.515 L 59.345,120.249 L 59.459,120.249 C 59.992,120.957 60.435,121.464 60.785,121.773 C 61.135,122.081 61.502,122.319 61.884,122.488 C 62.267,122.654 62.693,122.739 63.163,122.739 Z" marker-start="none" marker-end="none" fill-opacity="0.349020"/>
       <path d="M 78.921,110.283 L 70.717,110.283 L 74.166,126.601 L 82.371,126.601 L 82.012,124.894 L 75.695,124.894 L 74.602,119.658 L 80.483,119.658 L 80.159,117.962 L 74.256,117.962 L 72.985,111.979 L 79.289,111.979 L 78.921,110.283 Z" marker-start="none" marker-end="none" fill-opacity="0.349020"/>
       <path d="M 89.58,110.283 L 91.231,118.006 C 91.38,118.78 91.455,119.315 91.455,119.613 C 91.455,120.083 91.323,120.457 91.058,120.742 C 90.795,121.023 90.372,121.165 89.791,121.165 C 89.13,121.165 88.484,120.943 87.854,120.494 C 87.228,120.049 86.671,119.413 86.192,118.586 C 85.71,117.761 85.35,116.759 85.104,115.585 L 83.976,110.283 L 82.102,110.283 L 84.713,122.515 L 86.265,122.515 L 86.019,120.249 L 86.13,120.249 C 86.845,121.158 87.533,121.799 88.201,122.175 C 88.867,122.551 89.557,122.739 90.271,122.739 C 91.216,122.739 91.96,122.48 92.509,121.962 C 93.056,121.445 93.329,120.722 93.329,119.793 C 93.329,119.204 93.243,118.536 93.072,117.783 L 91.477,110.283 L 89.58,110.283 Z" marker-start="none" marker-end="none" fill-opacity="0.349020"/>
       <path d="M 99.045,111.59 C 99.452,111.59 99.988,111.685 100.65,111.879 L 100.65,110.439 C 100.397,110.335 100.084,110.245 99.713,110.171 C 99.341,110.097 99.045,110.06 98.82,110.06 C 97.89,110.06 97.177,110.281 96.682,110.725 C 96.187,111.167 95.94,111.827 95.94,112.705 C 95.94,113.198 96.009,113.754 96.142,114.38 L 97.559,121.098 L 95.639,121.098 L 95.796,121.913 L 97.861,122.784 L 99.255,125.326 L 100.348,125.326 L 99.736,122.515 L 102.791,122.515 L 102.503,121.098 L 99.456,121.098 L 98.016,114.359 C 97.883,113.708 97.818,113.219 97.818,112.885 C 97.818,112.467 97.924,112.147 98.139,111.923 C 98.355,111.7 98.657,111.59 99.045,111.59 Z" marker-start="none" marker-end="none" fill-opacity="0.349020"/>
       <path d="M 110.439,122.739 C 110.952,122.739 111.399,122.685 111.777,122.582 L 111.377,120.908 C 110.982,121.004 110.592,121.053 110.203,121.053 C 109.527,121.053 108.893,120.83 108.3,120.386 C 107.709,119.937 107.193,119.318 106.749,118.526 C 106.307,117.734 105.982,116.854 105.772,115.886 L 104.579,110.283 L 102.703,110.283 L 105.316,122.515 L 106.866,122.515 L 106.622,120.249 L 106.734,120.249 C 107.268,120.957 107.711,121.464 108.061,121.773 C 108.41,122.081 108.776,122.319 109.161,122.488 C 109.543,122.654 109.969,122.739 110.439,122.739 Z" marker-start="none" marker-end="none" fill-opacity="0.349020"/>
       <path d="M 112.19,122.515 L 114.067,122.515 L 114.89,116.434 C 114.967,115.919 115.039,115.163 115.108,114.162 C 115.178,113.162 115.216,112.355 115.216,111.744 L 115.282,111.744 C 115.543,112.391 115.867,113.137 116.254,113.976 C 116.641,114.82 116.926,115.398 117.113,115.718 L 120.739,122.515 L 122.725,122.515 L 114.959,108.207 C 114.267,106.928 113.581,106.039 112.906,105.54 C 112.228,105.041 111.412,104.793 110.46,104.793 C 109.925,104.793 109.404,104.871 108.898,105.024 L 108.898,106.532 C 109.367,106.399 109.856,106.333 110.36,106.333 C 110.972,106.333 111.494,106.519 111.927,106.896 C 112.363,107.272 112.789,107.828 113.195,108.565 L 114.043,110.082 L 112.19,122.515 Z" marker-start="none" marker-end="none" fill-opacity="0.349020"/>
      </g>
     </g>
    </g>
   </g>
  </g>
 </g>
</svg>
