<?xml version="1.0" standalone="no"?>
<!DOCTYPE svg PUBLIC "-//W3C//DTD SVG 1.1//EN" "http://www.w3.org/Graphics/SVG/1.1/DTD/svg11.dtd">
<!--Generator: Xara Designer (www.xara.com), SVG filter version: 4.0.0.1-->
<svg stroke-width="0.501" stroke-linejoin="bevel" fill-rule="evenodd" xmlns:xlink="http://www.w3.org/1999/xlink" xmlns="http://www.w3.org/2000/svg" version="1.1" overflow="visible" width="263.623pt" height="391.182pt" viewBox="0 0 263.623 391.182">
 <defs>
  <marker id="DefaultArrow2" markerUnits="strokeWidth" viewBox="0 0 1 1" markerWidth="1" markerHeight="1" overflow="visible" orient="auto">
   <!-- REF_ARROW_STRAIGHT (-2) -->
   <g transform="scale(0.0092592592)">
    <!-- 1/108 -->
    <path d="M -9 54 L -9 -54 L 117 0 z"/>
   </g>
  </marker>
  <marker id="DefaultArrow3" markerUnits="strokeWidth" viewBox="0 0 1 1" markerWidth="1" markerHeight="1" overflow="visible" orient="auto">
   <!-- REF_ARROW_ANGLED -->
   <g transform="scale(0.0092592592)">
    <path d="M -27 54 L -9 0 L -27 -54 L 135 0 z"/>
   </g>
  </marker>
  <marker id="DefaultArrow4" markerUnits="strokeWidth" viewBox="0 0 1 1" markerWidth="1" markerHeight="1" overflow="visible" orient="auto">
   <!-- REF_ARROW_ROUNDED -->
   <g transform="scale(0.0092592592)">
    <path d="M -9,0 L -9,-45 C -9,-51.708 2.808,-56.580 9,-54 L 117,-9 C 120.916,-7.369 126.000,-4.242 126,0 C 126,4.242 120.916,7.369 117,9 L 9,54 C 2.808,56.580 -9,51.708 -9,45 z"/>
   </g>
  </marker>
  <marker id="DefaultArrow5" markerUnits="strokeWidth" viewBox="0 0 1 1" markerWidth="1" markerHeight="1" overflow="visible" orient="auto">
   <!-- REF_ARROW_SPOT -->
   <g transform="scale(0.0092592592)">
    <path d="M -54, 0 C -54,29.807 -29.807,54 0,54 C 29.807,54 54,29.807 54,0 C 54,-29.807 29.807,-54 0,-54 C -29.807,-54 -54,-29.807 -54,0 z"/>
   </g>
  </marker>
  <marker id="DefaultArrow6" markerUnits="strokeWidth" viewBox="0 0 1 1" markerWidth="1" markerHeight="1" overflow="visible" orient="auto">
   <!-- REF_ARROW_DIAMOND -->
   <g transform="scale(0.0092592592)">
    <path d="M -63,0 L 0,63 L 63,0 L 0,-63 z"/>
   </g>
  </marker>
  <marker id="DefaultArrow7" markerUnits="strokeWidth" viewBox="0 0 1 1" markerWidth="1" markerHeight="1" overflow="visible" orient="auto">
   <!-- REF_ARROW_FEATHER -->
   <g transform="scale(0.0092592592)">
    <path d="M 18,-54 L 108,-54 L 63,0 L 108,54 L 18, 54 L -36,0 z"/>
   </g>
  </marker>
  <marker id="DefaultArrow8" markerUnits="strokeWidth" viewBox="0 0 1 1" markerWidth="1" markerHeight="1" overflow="visible" orient="auto">
   <!-- REF_ARROW_FEATHER2 -->
   <g transform="scale(0.0092592592)">
    <path d="M -36,0 L 18,-54 L 54,-54 L 18,-18 L 27,-18 L 63,-54 L 99,-54 L 63,-18 L 72,-18 L 108,-54 L 144,-54 L 90,0 L 144,54 L 108,54 L 72,18 L 63,18 L 99,54 L 63,54 L 27,18 L 18,18 L 54,54 L 18,54 z"/>
   </g>
  </marker>
  <marker id="DefaultArrow9" markerUnits="strokeWidth" viewBox="0 0 1 1" markerWidth="1" markerHeight="1" overflow="visible" orient="auto">
   <!-- REF_ARROW_HOLLOWDIAMOND -->
   <g transform="scale(0.0092592592)">
    <path d="M 0,45 L -45,0 L 0, -45 L 45, 0 z M 0, 63 L-63, 0 L 0, -63 L 63, 0 z"/>
   </g>
  </marker>
  <filter id="StainedFilter">
   <feBlend mode="multiply" in2="BackgroundImage" in="SourceGraphic" result="blend"/>
   <feComposite in="blend" in2="SourceAlpha" operator="in" result="comp"/>
  </filter>
  <filter id="BleachFilter">
   <feBlend mode="screen" in2="BackgroundImage" in="SourceGraphic" result="blend"/>
   <feComposite in="blend" in2="SourceAlpha" operator="in" result="comp"/>
  </filter>
  <filter id="InvertTransparencyBitmapFilter">
   <feComponentTransfer>
    <feFuncR type="gamma" amplitude="1.055" exponent=".416666666" offset="-0.055"/>
    <feFuncG type="gamma" amplitude="1.055" exponent=".416666666" offset="-0.055"/>
    <feFuncB type="gamma" amplitude="1.055" exponent=".416666666" offset="-0.055"/>
   </feComponentTransfer>
   <feComponentTransfer>
    <feFuncR type="linear" slope="-1" intercept="1"/>
    <feFuncG type="linear" slope="-1" intercept="1"/>
    <feFuncB type="linear" slope="-1" intercept="1"/>
    <feFuncA type="linear" slope="1" intercept="0"/>
   </feComponentTransfer>
   <feComponentTransfer>
    <feFuncR type="gamma" amplitude="1" exponent="2.4" offset="0"/>
    <feFuncG type="gamma" amplitude="1" exponent="2.4" offset="0"/>
    <feFuncB type="gamma" amplitude="1" exponent="2.4" offset="0"/>
   </feComponentTransfer>
  </filter>
 </defs>
 <g id="Document" fill="none" stroke="black" font-family="Times New Roman" font-size="16" transform="scale(1 -1)">
  <g id="Spread" transform="translate(0 -391.182)">
   <g id="Layer 1">
    <g id="Group" stroke-linecap="round">
     <mask id="TranspMask">
      <rect x="-10%" y="-10%" width="120%" height="120%" fill="#585858" stroke="none"/>
     </mask>
     <g id="Group_1" mask="url(#TranspMask)">
      <path d="M 155.443,328.278 L 155.443,305.587 C 155.443,301.885 158.447,298.88 162.15,298.88 L 186.639,298.88 C 190.342,298.88 193.346,301.885 193.346,305.587 L 193.346,328.278 C 193.346,331.981 190.342,334.986 186.639,334.986 L 162.15,334.986 C 158.447,334.986 155.443,331.981 155.443,328.278 Z" stroke-width="0.686" stroke-linejoin="miter" marker-start="none" marker-end="none" stroke-miterlimit="79.8403193612775"/>
      <g id="Group_2" fill-rule="nonzero" stroke-linejoin="round" stroke="none" stroke-width="0.481" fill="#000000" stroke-miterlimit="79.8403193612775">
       <g id="Group_3">
        <path d="M 178.964,310.803 L 169.825,310.803 L 169.825,323.062 L 178.681,323.062 L 178.681,321.605 L 171.447,321.605 L 171.447,317.86 L 178.212,317.86 L 178.212,316.406 L 171.447,316.406 L 171.447,312.257 L 178.964,312.257 L 178.964,310.803 Z" marker-start="none" marker-end="none"/>
       </g>
      </g>
     </g>
     <mask id="TranspMask_1">
      <rect x="-10%" y="-10%" width="120%" height="120%" fill="#585858" stroke="none"/>
     </mask>
     <g id="Group_4" mask="url(#TranspMask_1)">
      <g id="Group_5" stroke-linejoin="miter" stroke-width="0.686" stroke-miterlimit="79.8403193612775">
       <path d="M 155.443,189.072 L 155.443,166.379 C 155.443,162.678 158.447,159.673 162.15,159.673 L 246.083,159.673 C 249.786,159.673 252.789,162.678 252.789,166.379 L 252.789,189.072 C 252.789,192.774 249.786,195.779 246.083,195.779 L 162.15,195.779 C 158.447,195.779 155.443,192.774 155.443,189.072 Z" marker-start="none" marker-end="none"/>
      </g>
      <g id="Group_6" fill-rule="nonzero" stroke-linejoin="round" stroke="none" stroke-width="0.481" fill="#000000" stroke-miterlimit="79.8403193612775">
       <g id="Group_7">
        <path d="M 185.749,170.733 C 184.02,170.733 182.729,171.119 181.874,171.895 C 181.018,172.671 180.568,173.666 180.523,174.88 L 182.085,174.88 C 182.17,173.966 182.55,173.29 183.228,172.853 C 183.905,172.415 184.725,172.196 185.683,172.196 C 186.591,172.196 187.322,172.383 187.877,172.756 C 188.432,173.13 188.709,173.638 188.709,174.278 C 188.709,174.953 188.422,175.445 187.848,175.751 C 187.274,176.057 186.285,176.359 184.884,176.657 C 183.481,176.955 182.475,177.371 181.865,177.899 C 181.255,178.429 180.949,179.133 180.949,180.015 C 180.949,181.008 181.346,181.82 182.141,182.456 C 182.936,183.092 183.99,183.408 185.306,183.408 C 186.688,183.408 187.803,183.089 188.651,182.447 C 189.499,181.806 189.946,180.9 189.997,179.73 L 188.416,179.73 C 188.255,181.212 187.241,181.953 185.373,181.953 C 184.469,181.953 183.771,181.783 183.274,181.445 C 182.778,181.104 182.53,180.652 182.53,180.09 C 182.53,179.577 182.729,179.191 183.128,178.937 C 183.525,178.679 184.269,178.431 185.359,178.191 C 186.45,177.952 187.315,177.714 187.958,177.48 C 188.597,177.246 189.147,176.885 189.604,176.39 C 190.062,175.898 190.29,175.234 190.29,174.403 C 190.29,173.35 189.871,172.475 189.032,171.778 C 188.192,171.081 187.098,170.733 185.749,170.733 Z" marker-start="none" marker-end="none"/>
        <path d="M 193.919,178.752 C 194.621,179.594 195.467,180.015 196.453,180.015 C 197.612,180.015 198.509,179.604 199.146,178.781 C 199.778,177.959 200.098,176.849 200.098,175.448 C 200.098,173.996 199.743,172.845 199.032,172 C 198.321,171.154 197.423,170.733 196.344,170.733 C 195.384,170.733 194.576,171.031 193.919,171.627 L 193.919,167.53 L 192.338,167.53 L 192.338,179.815 L 193.919,179.815 L 193.919,178.752 Z M 193.919,173.049 C 194.593,172.331 195.367,171.971 196.243,171.971 C 196.924,171.971 197.464,172.262 197.865,172.845 C 198.268,173.426 198.467,174.295 198.467,175.448 C 198.467,176.543 198.277,177.371 197.9,177.936 C 197.52,178.5 196.991,178.785 196.309,178.785 C 195.435,178.785 194.636,178.278 193.919,177.264 L 193.919,173.049 Z" marker-start="none" marker-end="none"/>
        <path d="M 207.482,173.277 L 207.482,175.24 L 206.403,175.24 C 204.116,175.24 202.975,174.619 202.975,173.375 C 202.975,172.925 203.143,172.577 203.476,172.333 C 203.811,172.092 204.262,171.971 204.831,171.971 C 205.348,171.971 205.849,172.086 206.334,172.322 C 206.819,172.556 207.202,172.873 207.482,173.277 Z M 207.482,171.854 C 206.679,171.105 205.645,170.733 204.381,170.733 C 203.499,170.733 202.773,170.97 202.204,171.449 C 201.637,171.924 201.352,172.539 201.352,173.291 C 201.352,175.366 203.14,176.402 206.712,176.402 L 207.482,176.402 C 207.482,177.038 207.448,177.499 207.381,177.786 C 207.314,178.073 207.127,178.313 206.819,178.5 C 206.514,178.69 206.027,178.785 205.357,178.785 C 203.951,178.785 203.228,178.283 203.183,177.281 L 201.612,177.281 C 201.727,179.103 203.005,180.015 205.443,180.015 C 206.578,180.015 207.465,179.789 208.099,179.337 C 208.736,178.885 209.053,177.999 209.053,176.679 L 209.053,170.941 L 207.482,170.941 L 207.482,171.854 Z" marker-start="none" marker-end="none"/>
        <path d="M 214.982,170.733 C 213.723,170.733 212.715,171.138 211.959,171.95 C 211.203,172.76 210.825,173.901 210.825,175.374 C 210.825,176.851 211.203,177.995 211.959,178.802 C 212.715,179.609 213.723,180.015 214.982,180.015 C 215.953,180.015 216.762,179.769 217.411,179.279 C 218.061,178.789 218.444,178.08 218.562,177.156 L 216.937,177.156 C 216.918,177.684 216.717,178.089 216.341,178.364 C 215.966,178.646 215.513,178.785 214.982,178.785 C 214.229,178.785 213.619,178.499 213.151,177.929 C 212.682,177.356 212.447,176.507 212.448,175.374 C 212.447,174.248 212.682,173.4 213.151,172.828 C 213.619,172.257 214.229,171.971 214.982,171.971 C 215.513,171.971 215.966,172.108 216.341,172.388 C 216.717,172.666 216.918,173.069 216.937,173.593 L 218.562,173.593 C 218.444,172.666 218.061,171.958 217.411,171.469 C 216.762,170.977 215.953,170.733 214.982,170.733 Z" marker-start="none" marker-end="none"/>
        <path d="M 223.72,170.733 C 222.416,170.733 221.368,171.143 220.576,171.957 C 219.785,172.775 219.388,173.913 219.388,175.374 C 219.388,176.823 219.771,177.959 220.54,178.781 C 221.304,179.604 222.307,180.015 223.544,180.015 C 224.81,180.015 225.819,179.609 226.575,178.802 C 227.331,177.995 227.709,176.851 227.709,175.374 L 227.709,174.997 L 221.028,174.997 C 221.094,173.971 221.377,173.21 221.876,172.714 C 222.375,172.219 222.99,171.971 223.72,171.971 C 224.27,171.971 224.769,172.111 225.213,172.394 C 225.655,172.674 225.889,173.074 225.912,173.593 L 227.542,173.593 C 227.42,172.678 227.006,171.973 226.299,171.478 C 225.594,170.981 224.734,170.733 223.72,170.733 Z M 226.043,176.237 C 225.917,177.088 225.629,177.726 225.183,178.151 C 224.738,178.572 224.191,178.785 223.544,178.785 C 222.915,178.785 222.375,178.575 221.922,178.154 C 221.471,177.733 221.184,177.093 221.06,176.237 L 226.043,176.237 Z" marker-start="none" marker-end="none"/>
       </g>
      </g>
     </g>
     <mask id="TranspMask_2">
      <rect x="-10%" y="-10%" width="120%" height="120%" fill="#585858" stroke="none"/>
     </mask>
     <g id="Group_8" mask="url(#TranspMask_2)">
      <path d="M 155.443,375.404 L 155.443,352.711 C 155.443,349.009 158.447,346.004 162.15,346.004 L 186.639,346.004 C 190.342,346.004 193.346,349.009 193.346,352.711 L 193.346,375.404 C 193.346,379.105 190.342,382.111 186.639,382.111 L 162.15,382.111 C 158.447,382.111 155.443,379.105 155.443,375.404 Z" stroke-width="0.686" stroke-linejoin="miter" marker-start="none" marker-end="none" stroke-miterlimit="79.8403193612775"/>
      <g id="Group_9" fill-rule="nonzero" stroke-linejoin="round" stroke="none" stroke-width="0.481" fill="#000000" stroke-miterlimit="79.8403193612775">
       <g id="Group_10">
        <path d="M 174.416,357.719 C 172.689,357.719 171.396,358.106 170.541,358.88 C 169.686,359.655 169.236,360.651 169.191,361.866 L 170.755,361.866 C 170.838,360.954 171.218,360.276 171.895,359.838 C 172.574,359.401 173.391,359.183 174.348,359.183 C 175.259,359.183 175.989,359.369 176.545,359.742 C 177.1,360.116 177.376,360.623 177.376,361.263 C 177.376,361.94 177.086,362.43 176.516,362.736 C 175.941,363.043 174.954,363.345 173.551,363.643 C 172.151,363.942 171.144,364.355 170.532,364.885 C 169.922,365.415 169.617,366.12 169.616,367 C 169.617,367.994 170.015,368.807 170.809,369.442 C 171.603,370.078 172.659,370.396 173.973,370.396 C 175.356,370.396 176.471,370.075 177.318,369.434 C 178.165,368.793 178.615,367.886 178.665,366.716 L 177.084,366.716 C 176.922,368.201 175.908,368.941 174.041,368.941 C 173.138,368.941 172.44,368.77 171.942,368.43 C 171.445,368.09 171.198,367.639 171.198,367.076 C 171.198,366.563 171.396,366.178 171.796,365.922 C 172.195,365.665 172.938,365.419 174.029,365.177 C 175.118,364.937 175.985,364.7 176.624,364.466 C 177.264,364.233 177.815,363.87 178.273,363.374 C 178.729,362.883 178.956,362.22 178.956,361.389 C 178.956,360.336 178.537,359.461 177.697,358.763 C 176.86,358.067 175.766,357.719 174.416,357.719 Z" marker-start="none" marker-end="none"/>
       </g>
      </g>
     </g>
     <mask id="TranspMask_3">
      <rect x="-10%" y="-10%" width="120%" height="120%" fill="#585858" stroke="none"/>
     </mask>
     <g id="Group_11" mask="url(#TranspMask_3)">
      <path d="M 155.443,48.775 L 155.443,26.085 C 155.443,22.38 158.447,19.377 162.15,19.377 L 186.639,19.377 C 190.342,19.377 193.346,22.38 193.346,26.085 L 193.346,48.775 C 193.346,52.478 190.342,55.483 186.639,55.483 L 162.15,55.483 C 158.447,55.483 155.443,52.478 155.443,48.775 Z" stroke-width="0.686" stroke-linejoin="miter" marker-start="none" marker-end="none" stroke-miterlimit="79.8403193612775"/>
      <g id="Group_12" fill-rule="nonzero" stroke-linejoin="round" stroke="none" stroke-width="0.481" fill="#000000" stroke-miterlimit="79.8403193612775">
       <g id="Group_13">
        <path d="M 174.982,31.091 C 173.248,31.091 171.863,31.662 170.83,32.802 C 169.795,33.943 169.278,35.484 169.278,37.431 C 169.278,39.376 169.795,40.918 170.83,42.059 C 171.863,43.198 173.248,43.77 174.982,43.77 C 176.314,43.77 177.448,43.409 178.385,42.689 C 179.323,41.97 179.849,41.023 179.964,39.846 L 178.293,39.846 C 178.225,40.621 177.891,41.238 177.285,41.696 C 176.68,42.152 175.918,42.381 174.998,42.381 C 173.754,42.381 172.772,41.953 172.047,41.097 C 171.323,40.238 170.959,39.018 170.959,37.431 C 170.959,35.846 171.318,34.627 172.038,33.768 C 172.757,32.909 173.734,32.48 174.965,32.48 C 175.924,32.48 176.699,32.715 177.289,33.182 C 177.882,33.649 178.216,34.319 178.293,35.19 L 179.964,35.19 C 179.849,33.885 179.336,32.877 178.427,32.161 C 177.518,31.449 176.37,31.091 174.982,31.091 Z" marker-start="none" marker-end="none"/>
       </g>
      </g>
     </g>
     <mask id="TranspMask_4">
      <rect x="-10%" y="-10%" width="120%" height="120%" fill="#585858" stroke="none"/>
     </mask>
     <g id="Group_14" fill-rule="nonzero" stroke-linejoin="round" stroke="none" stroke-width="0.481" fill="#000000" stroke-miterlimit="79.8403193612775" mask="url(#TranspMask_4)">
      <g id="Group_15">
       <g id="Group_16">
        <path d="M 181.399,230.327 L 185.286,230.327 C 189.45,230.327 191.532,228.306 191.532,224.265 C 191.532,220.135 189.45,218.069 185.286,218.069 L 181.399,218.069 L 181.399,230.327 Z M 183.019,219.526 L 185.253,219.526 C 187.03,219.526 188.244,219.938 188.891,220.766 C 189.537,221.593 189.86,222.761 189.86,224.265 C 189.86,225.732 189.539,226.867 188.893,227.669 C 188.251,228.471 187.037,228.873 185.253,228.873 L 183.019,228.873 L 183.019,219.526 Z" marker-start="none" marker-end="none"/>
        <path d="M 197.328,217.859 C 196.023,217.859 194.975,218.268 194.182,219.085 C 193.392,219.902 192.995,221.04 192.995,222.502 C 192.995,223.95 193.379,225.086 194.147,225.908 C 194.912,226.729 195.914,227.143 197.152,227.143 C 198.418,227.143 199.427,226.738 200.182,225.929 C 200.938,225.121 201.316,223.978 201.316,222.502 L 201.316,222.125 L 194.635,222.125 C 194.702,221.101 194.986,220.338 195.483,219.842 C 195.983,219.346 196.597,219.099 197.328,219.099 C 197.879,219.099 198.377,219.239 198.82,219.519 C 199.264,219.801 199.495,220.201 199.518,220.721 L 201.149,220.721 C 201.026,219.805 200.612,219.102 199.907,218.605 C 199.202,218.109 198.342,217.859 197.328,217.859 Z M 199.652,223.362 C 199.524,224.215 199.237,224.855 198.791,225.277 C 198.346,225.7 197.799,225.913 197.152,225.913 C 196.523,225.913 195.982,225.7 195.529,225.281 C 195.078,224.861 194.791,224.22 194.669,223.362 L 199.652,223.362 Z" marker-start="none" marker-end="none"/>
        <path d="M 204.66,218.069 L 203.081,218.069 L 203.081,230.327 L 204.66,230.327 L 204.66,218.069 Z" marker-start="none" marker-end="none"/>
        <path d="M 210.756,217.859 C 209.452,217.859 208.403,218.268 207.611,219.085 C 206.821,219.902 206.424,221.04 206.424,222.502 C 206.424,223.95 206.808,225.086 207.574,225.908 C 208.342,226.729 209.344,227.143 210.58,227.143 C 211.847,227.143 212.857,226.738 213.612,225.929 C 214.367,225.121 214.745,223.978 214.745,222.502 L 214.745,222.125 L 208.063,222.125 C 208.131,221.101 208.415,220.338 208.913,219.842 C 209.41,219.346 210.026,219.099 210.756,219.099 C 211.309,219.099 211.806,219.239 212.249,219.519 C 212.692,219.801 212.925,220.201 212.947,220.721 L 214.578,220.721 C 214.455,219.805 214.041,219.102 213.336,218.605 C 212.631,218.109 211.771,217.859 210.756,217.859 Z M 213.082,223.362 C 212.952,224.215 212.665,224.855 212.218,225.277 C 211.774,225.7 211.228,225.913 210.58,225.913 C 209.95,225.913 209.41,225.7 208.957,225.281 C 208.508,224.861 208.219,224.22 208.097,223.362 L 213.082,223.362 Z" marker-start="none" marker-end="none"/>
        <path d="M 219.954,218.051 C 219.608,217.986 219.232,217.952 218.825,217.952 C 218.178,217.952 217.705,218.067 217.404,218.299 C 217.103,218.529 216.916,218.827 216.844,219.19 C 216.772,219.553 216.736,220.046 216.736,220.67 L 216.736,225.703 L 215.638,225.703 L 215.638,226.941 L 216.736,226.941 L 216.736,229.149 L 218.307,229.149 L 218.307,226.941 L 219.744,226.941 L 219.744,225.703 L 218.307,225.703 L 218.307,220.586 C 218.307,219.978 218.383,219.592 218.536,219.428 C 218.689,219.263 218.901,219.181 219.168,219.181 C 219.441,219.181 219.701,219.203 219.954,219.248 L 219.954,218.051 Z" marker-start="none" marker-end="none"/>
        <path d="M 225.037,217.859 C 223.734,217.859 222.687,218.268 221.894,219.085 C 221.104,219.902 220.707,221.04 220.707,222.502 C 220.707,223.95 221.09,225.086 221.857,225.908 C 222.622,226.729 223.625,227.143 224.862,227.143 C 226.13,227.143 227.139,226.738 227.894,225.929 C 228.65,225.121 229.026,223.978 229.026,222.502 L 229.026,222.125 L 222.345,222.125 C 222.413,221.101 222.696,220.338 223.195,219.842 C 223.693,219.346 224.308,219.099 225.037,219.099 C 225.591,219.099 226.087,219.239 226.531,219.519 C 226.975,219.801 227.208,220.201 227.229,220.721 L 228.86,220.721 C 228.737,219.805 228.324,219.102 227.619,218.605 C 226.913,218.109 226.053,217.859 225.037,217.859 Z M 227.364,223.362 C 227.236,224.215 226.947,224.855 226.501,225.277 C 226.056,225.7 225.51,225.913 224.862,225.913 C 224.232,225.913 223.692,225.7 223.241,225.281 C 222.79,224.861 222.502,224.22 222.379,223.362 L 227.364,223.362 Z" marker-start="none" marker-end="none"/>
       </g>
      </g>
     </g>
     <mask id="TranspMask_5">
      <rect x="-10%" y="-10%" width="120%" height="120%" fill="#585858" stroke="none"/>
     </mask>
     <g id="Group_17" mask="url(#TranspMask_5)">
      <g id="Group_18" fill-rule="nonzero" stroke-linejoin="round" stroke="none" stroke-width="0.481" fill="#000000" stroke-miterlimit="79.8403193612775">
       <g id="Group_19">
        <g id="Group_20">
         <path d="M 197.887,77.953 L 188.747,77.953 L 188.747,90.211 L 197.603,90.211 L 197.603,88.758 L 190.369,88.758 L 190.369,85.011 L 197.135,85.011 L 197.135,83.557 L 190.369,83.557 L 190.369,79.408 L 197.887,79.408 L 197.887,77.953 Z" marker-start="none" marker-end="none"/>
         <path d="M 201.541,85.697 C 202.328,86.584 203.211,87.026 204.192,87.026 C 206.195,87.026 207.194,85.935 207.194,83.757 L 207.194,77.953 L 205.613,77.953 L 205.613,83.69 C 205.614,84.414 205.484,84.936 205.225,85.252 C 204.966,85.571 204.539,85.73 203.949,85.73 C 203.147,85.73 202.344,85.256 201.541,84.308 L 201.541,77.953 L 199.961,77.953 L 199.961,86.826 L 201.541,86.826 L 201.541,85.697 Z" marker-start="none" marker-end="none"/>
         <path d="M 212.93,77.936 C 212.585,77.87 212.209,77.836 211.802,77.836 C 211.155,77.836 210.681,77.952 210.381,78.183 C 210.078,78.415 209.892,78.712 209.819,79.074 C 209.748,79.436 209.711,79.93 209.711,80.554 L 209.711,85.589 L 208.615,85.589 L 208.615,86.826 L 209.711,86.826 L 209.711,89.032 L 211.282,89.032 L 211.282,86.826 L 212.722,86.826 L 212.722,85.589 L 211.282,85.589 L 211.282,80.471 C 211.282,79.862 211.359,79.476 211.514,79.312 C 211.665,79.148 211.876,79.065 212.145,79.065 C 212.416,79.065 212.679,79.088 212.93,79.132 L 212.93,77.936 Z" marker-start="none" marker-end="none"/>
         <path d="M 218.014,77.745 C 216.71,77.745 215.662,78.153 214.869,78.97 C 214.079,79.788 213.683,80.925 213.683,82.386 C 213.683,83.835 214.064,84.97 214.832,85.793 C 215.599,86.615 216.6,87.026 217.837,87.026 C 219.104,87.026 220.113,86.621 220.869,85.814 C 221.624,85.008 222.003,83.864 222.003,82.386 L 222.003,82.01 L 215.322,82.01 C 215.388,80.983 215.672,80.223 216.17,79.726 C 216.669,79.23 217.283,78.983 218.014,78.983 C 218.566,78.983 219.064,79.123 219.506,79.403 C 219.949,79.686 220.183,80.086 220.205,80.604 L 221.836,80.604 C 221.714,79.69 221.299,78.986 220.594,78.49 C 219.888,77.993 219.029,77.745 218.014,77.745 Z M 220.34,83.248 C 220.212,84.1 219.923,84.738 219.477,85.161 C 219.032,85.585 218.486,85.797 217.837,85.799 C 217.208,85.797 216.667,85.587 216.216,85.166 C 215.766,84.746 215.478,84.105 215.356,83.248 L 220.34,83.248 Z" marker-start="none" marker-end="none"/>
         <path d="M 228.374,85.387 C 228.152,85.453 227.83,85.487 227.412,85.487 C 226.609,85.487 225.921,85.066 225.348,84.226 L 225.348,77.953 L 223.767,77.953 L 223.767,86.826 L 225.348,86.826 L 225.348,85.589 C 226.011,86.547 226.78,87.026 227.655,87.026 C 227.878,87.026 228.118,87.004 228.374,86.959 L 228.374,85.387 Z" marker-start="none" marker-end="none"/>
        </g>
       </g>
      </g>
      <path d="M 157.132,72.738 L 157.132,95.43 C 157.132,99.132 159.841,102.138 163.181,102.138 L 204.148,102.138 L 204.148,142.651 C 204.148,146.353 206.892,149.359 210.271,149.359 L 247.167,149.359 C 250.549,149.359 253.293,146.353 253.293,142.651 L 253.293,95.435 C 253.293,95.433 253.293,95.432 253.293,95.43 L 253.293,72.738 C 253.293,69.036 250.583,66.031 247.244,66.031 L 163.181,66.031 C 159.841,66.031 157.132,69.036 157.132,72.738 Z" stroke-width="0.686" stroke-linejoin="miter" marker-start="none" marker-end="none" stroke-miterlimit="79.8403193612775"/>
     </g>
     <mask id="TranspMask_6">
      <rect x="-10%" y="-10%" width="120%" height="120%" fill="#585858" stroke="none"/>
     </mask>
     <g id="Group_21" fill-rule="nonzero" stroke-linejoin="round" stroke="none" stroke-width="0.481" fill="#000000" stroke-miterlimit="79.8403193612775" mask="url(#TranspMask_6)">
      <g id="Group_22">
       <g id="Group_23">
        <path d="M 172.984,268.323 C 172.984,267.175 172.594,266.294 171.814,265.68 C 171.033,265.067 169.898,264.76 168.409,264.76 L 163.819,264.76 L 163.819,277.018 L 168.184,277.018 C 169.489,277.018 170.515,276.739 171.262,276.182 C 172.008,275.625 172.382,274.86 172.382,273.891 C 172.382,272.709 171.794,271.834 170.617,271.265 C 171.408,271.065 172.002,270.696 172.396,270.158 C 172.787,269.62 172.984,269.009 172.984,268.323 Z M 165.44,271.886 L 168.167,271.886 C 169.065,271.886 169.726,272.028 170.149,272.316 C 170.572,272.602 170.785,273.08 170.785,273.749 C 170.785,274.352 170.578,274.804 170.166,275.108 C 169.753,275.411 169.036,275.564 168.016,275.564 L 165.44,275.564 L 165.44,271.886 Z M 165.44,266.216 L 168.393,266.216 C 170.333,266.216 171.302,266.917 171.302,268.323 C 171.302,269.053 171.079,269.586 170.63,269.925 C 170.182,270.26 169.366,270.43 168.184,270.43 L 165.44,270.43 L 165.44,266.216 Z" marker-start="none" marker-end="none"/>
        <path d="M 180.652,267.093 L 180.652,269.058 L 179.573,269.058 C 177.287,269.058 176.144,268.436 176.144,267.194 C 176.144,266.744 176.311,266.395 176.646,266.152 C 176.981,265.909 177.432,265.789 178.002,265.789 C 178.519,265.789 179.02,265.905 179.506,266.139 C 179.99,266.374 180.373,266.692 180.652,267.093 Z M 180.652,265.67 C 179.85,264.924 178.816,264.55 177.549,264.55 C 176.668,264.55 175.945,264.789 175.375,265.266 C 174.806,265.743 174.522,266.357 174.522,267.11 C 174.522,269.182 176.309,270.223 179.882,270.223 L 180.652,270.223 C 180.652,270.856 180.618,271.317 180.551,271.604 C 180.484,271.89 180.297,272.13 179.99,272.319 C 179.685,272.509 179.197,272.604 178.528,272.604 C 177.123,272.604 176.397,272.102 176.353,271.098 L 174.782,271.098 C 174.899,272.921 176.175,273.834 178.612,273.834 C 179.748,273.834 180.635,273.607 181.27,273.157 C 181.905,272.703 182.223,271.818 182.223,270.496 L 182.223,264.76 L 180.652,264.76 L 180.652,265.67 Z" marker-start="none" marker-end="none"/>
        <path d="M 188.153,264.55 C 186.893,264.55 185.883,264.957 185.129,265.768 C 184.374,266.579 183.996,267.72 183.996,269.193 C 183.996,270.669 184.374,271.812 185.129,272.62 C 185.883,273.429 186.893,273.834 188.153,273.834 C 189.122,273.834 189.932,273.587 190.581,273.096 C 191.231,272.607 191.614,271.898 191.73,270.972 L 190.108,270.972 C 190.086,271.504 189.886,271.907 189.511,272.186 C 189.135,272.464 188.682,272.604 188.153,272.604 C 187.399,272.604 186.789,272.319 186.322,271.746 C 185.852,271.175 185.618,270.323 185.618,269.193 C 185.618,268.066 185.852,267.218 186.322,266.645 C 186.789,266.075 187.399,265.789 188.153,265.789 C 188.682,265.789 189.135,265.928 189.511,266.208 C 189.886,266.485 190.086,266.887 190.108,267.412 L 191.73,267.412 C 191.614,266.485 191.231,265.778 190.581,265.286 C 189.932,264.797 189.122,264.55 188.153,264.55 Z" marker-start="none" marker-end="none"/>
        <path d="M 200.452,264.76 L 198.573,264.76 L 195.686,269.267 L 194.699,268.289 L 194.699,264.76 L 193.12,264.76 L 193.12,277.018 L 194.699,277.018 L 194.699,270.07 L 198.119,273.633 L 200.109,273.633 L 196.748,270.328 L 200.452,264.76 Z" marker-start="none" marker-end="none"/>
        <path d="M 204.85,264.55 C 202.427,264.55 201.158,265.504 201.046,267.412 L 202.626,267.412 C 202.638,266.328 203.373,265.789 204.834,265.789 C 205.487,265.789 205.984,265.924 206.326,266.194 C 206.669,266.463 206.841,266.802 206.841,267.211 C 206.841,267.611 206.674,267.895 206.34,268.059 C 206.005,268.225 205.315,268.436 204.27,268.7 C 203.224,268.96 202.462,269.253 201.979,269.578 C 201.496,269.899 201.256,270.468 201.256,271.282 C 201.256,272.018 201.556,272.628 202.153,273.11 C 202.752,273.591 203.553,273.834 204.559,273.834 C 206.883,273.834 208.07,273.005 208.119,271.349 L 206.548,271.349 C 206.492,272.186 205.864,272.604 204.668,272.604 C 204.137,272.604 203.699,272.504 203.35,272.302 C 203.002,272.102 202.829,271.809 202.829,271.423 C 202.829,271.08 202.962,270.83 203.228,270.676 C 203.497,270.522 204.168,270.318 205.24,270.058 C 206.313,269.799 207.109,269.496 207.632,269.151 C 208.151,268.804 208.413,268.208 208.413,267.361 C 208.413,266.553 208.091,265.882 207.448,265.35 C 206.803,264.818 205.937,264.55 204.85,264.55 Z" marker-start="none" marker-end="none"/>
        <path d="M 211.825,272.57 C 212.527,273.412 213.371,273.834 214.359,273.834 C 215.518,273.834 216.415,273.421 217.051,272.599 C 217.687,271.777 218.005,270.666 218.005,269.267 C 218.005,267.811 217.649,266.664 216.938,265.818 C 216.227,264.974 215.331,264.55 214.249,264.55 C 213.29,264.55 212.483,264.849 211.825,265.445 L 211.825,261.35 L 210.245,261.35 L 210.245,273.633 L 211.825,273.633 L 211.825,272.57 Z M 211.825,266.867 C 212.498,266.148 213.274,265.789 214.15,265.789 C 214.83,265.789 215.37,266.08 215.773,266.664 C 216.173,267.246 216.373,268.113 216.373,269.267 C 216.373,270.361 216.184,271.189 215.805,271.755 C 215.427,272.32 214.897,272.604 214.216,272.604 C 213.341,272.604 212.544,272.096 211.825,271.082 L 211.825,266.867 Z" marker-start="none" marker-end="none"/>
        <path d="M 225.388,267.093 L 225.388,269.058 L 224.309,269.058 C 222.023,269.058 220.88,268.436 220.88,267.194 C 220.88,266.744 221.047,266.395 221.382,266.152 C 221.716,265.909 222.168,265.789 222.738,265.789 C 223.254,265.789 223.756,265.905 224.244,266.139 C 224.727,266.374 225.108,266.692 225.388,267.093 Z M 225.388,265.67 C 224.584,264.924 223.551,264.55 222.284,264.55 C 221.404,264.55 220.68,264.789 220.112,265.266 C 219.543,265.743 219.258,266.357 219.258,267.11 C 219.258,269.182 221.045,270.223 224.618,270.223 L 225.388,270.223 C 225.388,270.856 225.354,271.317 225.287,271.604 C 225.221,271.89 225.033,272.13 224.727,272.319 C 224.42,272.509 223.933,272.604 223.262,272.604 C 221.857,272.604 221.134,272.102 221.09,271.098 L 219.517,271.098 C 219.636,272.921 220.911,273.834 223.347,273.834 C 224.484,273.834 225.37,273.607 226.006,273.157 C 226.642,272.703 226.959,271.818 226.959,270.496 L 226.959,264.76 L 225.388,264.76 L 225.388,265.67 Z" marker-start="none" marker-end="none"/>
        <path d="M 232.888,264.55 C 231.628,264.55 230.621,264.957 229.865,265.768 C 229.11,266.579 228.732,267.72 228.732,269.193 C 228.732,270.669 229.11,271.812 229.865,272.62 C 230.621,273.429 231.628,273.834 232.888,273.834 C 233.857,273.834 234.668,273.587 235.317,273.096 C 235.967,272.607 236.35,271.898 236.467,270.972 L 234.844,270.972 C 234.823,271.504 234.623,271.907 234.247,272.186 C 233.871,272.464 233.42,272.604 232.888,272.604 C 232.136,272.604 231.525,272.319 231.057,271.746 C 230.588,271.175 230.354,270.323 230.354,269.193 C 230.354,268.066 230.588,267.218 231.057,266.645 C 231.525,266.075 232.136,265.789 232.888,265.789 C 233.42,265.789 233.871,265.928 234.247,266.208 C 234.623,266.485 234.823,266.887 234.844,267.412 L 236.467,267.412 C 236.35,266.485 235.967,265.778 235.317,265.286 C 234.668,264.797 233.857,264.55 232.888,264.55 Z" marker-start="none" marker-end="none"/>
        <path d="M 241.627,264.55 C 240.322,264.55 239.272,264.959 238.482,265.776 C 237.691,266.593 237.296,267.731 237.296,269.193 C 237.296,270.641 237.678,271.777 238.444,272.599 C 239.211,273.421 240.214,273.834 241.45,273.834 C 242.715,273.834 243.725,273.429 244.481,272.62 C 245.237,271.812 245.615,270.669 245.615,269.193 L 245.615,268.816 L 238.934,268.816 C 239.001,267.792 239.284,267.029 239.783,266.533 C 240.281,266.037 240.896,265.789 241.627,265.789 C 242.178,265.789 242.675,265.931 243.119,266.21 C 243.562,266.491 243.796,266.892 243.816,267.412 L 245.447,267.412 C 245.326,266.497 244.911,265.792 244.205,265.296 C 243.5,264.799 242.642,264.55 241.627,264.55 Z M 243.951,270.052 C 243.823,270.906 243.536,271.546 243.089,271.969 C 242.645,272.392 242.096,272.604 241.45,272.604 C 240.821,272.604 240.279,272.392 239.828,271.972 C 239.377,271.552 239.09,270.911 238.967,270.052 L 243.951,270.052 Z" marker-start="none" marker-end="none"/>
       </g>
      </g>
     </g>
     <mask id="TranspMask_7">
      <rect x="-10%" y="-10%" width="120%" height="120%" fill="#585858" stroke="none"/>
     </mask>
     <g id="Group_24" mask="url(#TranspMask_7)">
      <g id="Group_25" fill-rule="nonzero" stroke-linejoin="round" stroke="none" stroke-width="0.481" fill="#000000" stroke-miterlimit="79.8403193612775">
       <g id="Group_26">
        <g id="Group_27">
         <path d="M 224.558,31.406 L 215.416,31.406 L 215.416,43.666 L 224.271,43.666 L 224.271,42.21 L 217.037,42.21 L 217.037,38.464 L 223.803,38.464 L 223.803,37.008 L 217.037,37.008 L 217.037,32.86 L 224.558,32.86 L 224.558,31.406 Z" marker-start="none" marker-end="none"/>
         <path d="M 229.798,31.197 C 227.374,31.197 226.105,32.15 225.994,34.057 L 227.574,34.057 C 227.586,32.975 228.321,32.435 229.783,32.435 C 230.435,32.435 230.932,32.569 231.275,32.839 C 231.617,33.11 231.789,33.449 231.789,33.856 C 231.789,34.258 231.622,34.54 231.288,34.704 C 230.953,34.87 230.263,35.081 229.217,35.345 C 228.173,35.606 227.409,35.898 226.926,36.222 C 226.445,36.545 226.203,37.115 226.203,37.928 C 226.203,38.664 226.503,39.272 227.102,39.756 C 227.702,40.237 228.503,40.477 229.506,40.477 C 231.83,40.477 233.018,39.65 233.067,37.994 L 231.496,37.994 C 231.441,38.83 230.813,39.249 229.615,39.249 C 229.086,39.249 228.646,39.148 228.297,38.947 C 227.95,38.748 227.775,38.455 227.775,38.071 C 227.775,37.725 227.909,37.475 228.177,37.322 C 228.444,37.169 229.116,36.963 230.188,36.703 C 231.261,36.446 232.058,36.141 232.579,35.797 C 233.099,35.449 233.36,34.853 233.36,34.007 C 233.36,33.197 233.039,32.529 232.395,31.995 C 231.751,31.464 230.886,31.197 229.798,31.197 Z" marker-start="none" marker-end="none"/>
         <path d="M 238.788,31.197 C 237.528,31.197 236.52,31.603 235.764,32.413 C 235.011,33.224 234.631,34.366 234.631,35.838 C 234.631,37.316 235.011,38.458 235.764,39.267 C 236.52,40.074 237.528,40.477 238.788,40.477 C 239.758,40.477 240.568,40.234 241.217,39.743 C 241.866,39.252 242.249,38.544 242.368,37.616 L 240.744,37.616 C 240.723,38.148 240.524,38.553 240.147,38.831 C 239.771,39.11 239.318,39.249 238.788,39.249 C 238.036,39.249 237.425,38.963 236.957,38.392 C 236.489,37.821 236.254,36.969 236.254,35.838 C 236.254,34.712 236.489,33.863 236.957,33.292 C 237.425,32.721 238.036,32.435 238.788,32.435 C 239.318,32.435 239.771,32.575 240.147,32.852 C 240.524,33.131 240.723,33.532 240.744,34.057 L 242.368,34.057 C 242.249,33.131 241.866,32.423 241.217,31.934 C 240.568,31.442 239.758,31.197 238.788,31.197 Z" marker-start="none" marker-end="none"/>
        </g>
       </g>
      </g>
      <path d="M 204.49,48.773 L 204.49,26.086 C 204.49,22.384 207.108,19.379 210.333,19.379 L 247.45,19.379 C 250.676,19.379 253.294,22.384 253.294,26.086 L 253.294,48.773 C 253.294,52.476 250.676,55.482 247.45,55.482 L 210.333,55.482 C 207.108,55.482 204.49,52.476 204.49,48.773 Z" stroke-width="0.686" stroke-linejoin="miter" marker-start="none" marker-end="none" stroke-miterlimit="79.8403193612775"/>
     </g>
     <mask id="TranspMask_8">
      <rect x="-10%" y="-10%" width="120%" height="120%" fill="#585858" stroke="none"/>
     </mask>
     <g id="Group_28" stroke-linejoin="miter" stroke-width="0.686" stroke-miterlimit="79.8403193612775" mask="url(#TranspMask_8)">
      <g id="Group_29">
       <path d="M 155.443,236.034 L 155.443,213.341 C 155.443,209.64 158.447,206.635 162.15,206.635 L 246.083,206.635 C 249.786,206.635 252.789,209.64 252.789,213.341 L 252.789,236.034 C 252.789,239.736 249.786,242.741 246.083,242.741 L 162.15,242.741 C 158.447,242.741 155.443,239.736 155.443,236.034 Z" marker-start="none" marker-end="none"/>
      </g>
     </g>
     <mask id="TranspMask_9">
      <rect x="-10%" y="-10%" width="120%" height="120%" fill="#585858" stroke="none"/>
     </mask>
     <g id="Group_30" stroke-linejoin="miter" stroke-width="0.686" stroke-miterlimit="79.8403193612775" mask="url(#TranspMask_9)">
      <g id="Group_31">
       <path d="M 155.444,281.73 L 155.444,259.037 C 155.444,255.336 158.448,252.331 162.151,252.331 L 246.084,252.331 C 249.787,252.331 252.79,255.336 252.79,259.037 L 252.79,281.73 C 252.79,285.432 249.787,288.437 246.084,288.437 L 162.151,288.437 C 158.448,288.437 155.444,285.432 155.444,281.73 Z" marker-start="none" marker-end="none"/>
      </g>
     </g>
     <mask id="TranspMask_10">
      <rect x="-10%" y="-10%" width="120%" height="120%" fill="#585858" stroke="none"/>
     </mask>
     <g id="Group_32" mask="url(#TranspMask_10)">
      <path d="M 203.933,328.278 L 203.933,305.587 C 203.933,301.885 206.937,298.88 210.64,298.88 L 235.127,298.88 C 238.831,298.88 241.836,301.885 241.836,305.587 L 241.836,328.278 C 241.836,331.981 238.831,334.986 235.127,334.986 L 210.64,334.986 C 206.937,334.986 203.933,331.981 203.933,328.278 Z" stroke-width="0.686" stroke-linejoin="miter" marker-start="none" marker-end="none" stroke-miterlimit="79.8403193612775"/>
      <g id="Group_33" fill-rule="nonzero" stroke-linejoin="round" stroke="none" stroke-width="0.535" fill="#000000" stroke-miterlimit="79.8403193612775">
       <g id="Group_34">
        <path d="M 226.651,318.37 L 224.932,318.37 L 222.88,322.402 L 220.826,318.37 L 219.117,318.37 L 222.219,324.093 L 223.549,324.093 L 226.651,318.37 Z" marker-start="none" marker-end="none"/>
       </g>
      </g>
     </g>
     <mask id="TranspMask_11">
      <rect x="-10%" y="-10%" width="120%" height="120%" fill="#585858" stroke="none"/>
     </mask>
     <g id="Group_35" font-size="22.146" font-family="Arial" mask="url(#TranspMask_11)">
      <path d="M 155.445,141.87 L 155.445,119.039 C 155.445,115.315 158.468,112.291 162.194,112.291 L 186.833,112.291 C 190.558,112.291 193.581,115.315 193.581,119.039 L 193.581,141.87 C 193.581,145.595 190.558,148.618 186.833,148.618 L 162.194,148.618 C 158.468,148.618 155.445,145.595 155.445,141.87 Z" stroke-width="0.691" stroke-linejoin="miter" marker-start="none" marker-end="none" stroke-miterlimit="79.8403193612775"/>
      <text xml:space="preserve" transform="translate(168.046 122.632) scale(1 -1)" stroke="none" stroke-width="0.553" stroke-linejoin="round" fill="#000000" stroke-miterlimit="79.8403193612775"><tspan x="0" y="0">=</tspan></text>
     </g>
    </g>
    <g id="Group_36" stroke-linecap="round" stroke-width="0.771" fill-rule="nonzero" stroke-linejoin="round" stroke="none" fill="#000000" stroke-miterlimit="79.8403193612775">
     <g id="Group_37" stroke-opacity="0.349020" fill-opacity="0.349020">
      <path d="M 64.634,119.687 L 56.748,119.687 L 60.064,135.373 L 67.95,135.373 L 67.607,133.732 L 61.535,133.732 L 60.484,128.699 L 66.138,128.699 L 65.826,127.069 L 60.149,127.069 L 58.925,121.317 L 64.988,121.317 L 64.634,119.687 Z" marker-start="none" marker-end="none" fill-opacity="0.349020"/>
      <path d="M 73.938,131.661 C 74.61,131.661 75.201,131.48 75.712,131.118 C 76.224,130.758 76.613,130.252 76.875,129.599 L 77.015,129.599 L 77.737,131.447 L 79.077,131.447 L 75.471,114.407 L 73.691,114.407 L 74.774,119.557 C 74.837,119.879 75.043,120.669 75.387,121.929 L 75.301,121.929 C 74.619,121.063 73.959,120.437 73.314,120.05 C 72.672,119.663 72.005,119.472 71.32,119.472 C 70.318,119.472 69.532,119.82 68.964,120.519 C 68.395,121.214 68.112,122.19 68.112,123.442 C 68.112,124.958 68.37,126.359 68.889,127.649 C 69.408,128.936 70.109,129.926 70.993,130.621 C 71.876,131.314 72.856,131.661 73.938,131.661 Z M 71.878,120.964 C 72.536,120.964 73.215,121.293 73.917,121.95 C 74.616,122.609 75.183,123.456 75.617,124.493 C 76.05,125.53 76.266,126.603 76.266,127.712 C 76.266,128.464 76.071,129.058 75.681,129.493 C 75.292,129.93 74.746,130.149 74.045,130.147 C 73.323,130.149 72.645,129.846 72.016,129.243 C 71.388,128.637 70.887,127.803 70.513,126.74 C 70.141,125.679 69.956,124.565 69.956,123.4 C 69.956,121.775 70.595,120.964 71.878,120.964 Z" marker-start="none" marker-end="none" fill-opacity="0.349020"/>
      <path d="M 84.582,131.447 L 82.971,123.989 C 82.843,123.35 82.779,122.856 82.779,122.497 C 82.779,121.474 83.305,120.964 84.357,120.964 C 84.984,120.964 85.606,121.177 86.212,121.607 C 86.819,122.036 87.358,122.651 87.823,123.453 C 88.288,124.253 88.641,125.22 88.885,126.349 L 89.958,131.447 L 91.739,131.447 L 89.26,119.687 L 87.767,119.687 L 88.003,121.865 L 87.877,121.865 C 87.175,120.971 86.506,120.347 85.869,119.998 C 85.233,119.647 84.574,119.472 83.894,119.472 C 82.979,119.472 82.26,119.721 81.738,120.217 C 81.216,120.715 80.954,121.424 80.955,122.347 C 80.954,122.791 81.033,123.405 81.193,124.193 L 82.758,131.447 L 84.582,131.447 Z" marker-start="none" marker-end="none" fill-opacity="0.349020"/>
      <path d="M 99.282,131.661 C 99.94,131.661 100.526,131.484 101.042,131.13 C 101.556,130.777 101.958,130.266 102.244,129.599 L 102.362,129.599 L 103.081,131.447 L 104.442,131.447 L 101.942,119.687 L 100.516,119.687 L 100.795,121.929 L 100.709,121.929 C 99.428,120.291 98.08,119.472 96.664,119.472 C 95.669,119.472 94.888,119.826 94.324,120.533 C 93.758,121.242 93.477,122.212 93.477,123.442 C 93.477,124.93 93.73,126.31 94.237,127.584 C 94.746,128.857 95.447,129.855 96.341,130.577 C 97.235,131.3 98.218,131.661 99.282,131.661 Z M 97.243,120.964 C 97.937,120.964 98.627,121.295 99.314,121.955 C 100.001,122.617 100.557,123.479 100.988,124.541 C 101.415,125.604 101.631,126.669 101.631,127.734 C 101.631,128.471 101.431,129.058 101.029,129.493 C 100.63,129.93 100.104,130.149 99.453,130.147 C 98.709,130.149 98.017,129.841 97.377,129.224 C 96.738,128.611 96.235,127.776 95.869,126.727 C 95.504,125.674 95.323,124.565 95.323,123.4 C 95.323,122.584 95.491,121.973 95.825,121.57 C 96.162,121.166 96.635,120.964 97.243,120.964 Z" marker-start="none" marker-end="none" fill-opacity="0.349020"/>
      <path d="M 107.254,119.687 L 105.452,119.687 L 109.017,136.383 L 110.817,136.383 L 107.254,119.687 Z" marker-start="none" marker-end="none" fill-opacity="0.349020"/>
      <path d="M 118.305,123.022 C 118.305,121.907 117.91,121.036 117.121,120.409 C 116.33,119.784 115.215,119.472 113.778,119.472 C 112.568,119.472 111.478,119.719 110.505,120.211 L 110.505,121.907 C 111.006,121.607 111.545,121.375 112.125,121.21 C 112.706,121.046 113.241,120.964 113.735,120.964 C 114.635,120.964 115.315,121.142 115.774,121.499 C 116.231,121.856 116.459,122.315 116.459,122.873 C 116.459,123.281 116.335,123.623 116.086,123.903 C 115.834,124.182 115.293,124.565 114.465,125.052 C 113.534,125.573 112.877,126.086 112.49,126.586 C 112.104,127.086 111.911,127.68 111.911,128.365 C 111.911,129.353 112.273,130.149 112.994,130.755 C 113.717,131.359 114.669,131.661 115.85,131.661 C 117.072,131.661 118.25,131.396 119.389,130.867 L 118.809,129.396 L 118.209,129.665 C 117.487,129.971 116.7,130.126 115.85,130.126 C 115.183,130.126 114.66,129.97 114.281,129.66 C 113.903,129.349 113.713,128.947 113.713,128.452 C 113.713,128.051 113.84,127.709 114.095,127.423 C 114.35,127.135 114.871,126.768 115.667,126.317 C 116.43,125.888 116.98,125.52 117.313,125.211 C 117.645,124.906 117.894,124.573 118.061,124.22 C 118.224,123.866 118.305,123.467 118.305,123.022 Z" marker-start="none" marker-end="none" fill-opacity="0.349020"/>
     </g>
    </g>
    <g id="Group_38" stroke-linecap="round" fill-rule="nonzero" stroke-linejoin="round" stroke="none" stroke-width="0.857" fill="#000000" stroke-miterlimit="79.8403193612775">
     <g id="Group_39" stroke-opacity="0.349020" fill-opacity="0.349020">
      <path d="M 37.401,308.973 L 29.513,308.973 L 32.83,324.66 L 40.716,324.66 L 40.373,323.021 L 34.3,323.021 L 33.246,317.985 L 38.903,317.985 L 38.592,316.357 L 32.915,316.357 L 31.691,310.605 L 37.755,310.605 L 37.401,308.973 Z" marker-start="none" marker-end="none" fill-opacity="0.349020"/>
      <path d="M 44.837,313.63 L 41.123,308.973 L 39.033,308.973 L 44.128,315.035 L 41.565,320.735 L 43.388,320.735 L 45.255,316.314 L 48.796,320.735 L 50.877,320.735 L 45.997,314.95 L 48.701,308.973 L 46.895,308.973 L 44.837,313.63 Z" marker-start="none" marker-end="none" fill-opacity="0.349020"/>
      <path d="M 56.178,308.759 C 55.485,308.759 54.876,308.939 54.355,309.295 C 53.831,309.653 53.427,310.155 53.141,310.798 L 53.035,310.798 L 52.992,310.39 C 52.97,310.211 52.933,309.96 52.879,309.639 C 52.824,309.317 52.416,307.334 51.65,303.695 L 49.868,303.695 L 53.474,320.735 L 54.965,320.735 L 54.686,318.492 L 54.772,318.492 C 56.053,320.115 57.384,320.926 58.764,320.926 C 59.745,320.926 60.516,320.578 61.08,319.881 C 61.645,319.184 61.93,318.205 61.93,316.946 C 61.93,315.429 61.682,314.038 61.19,312.773 C 60.696,311.506 60.013,310.521 59.14,309.815 C 58.268,309.112 57.28,308.759 56.178,308.759 Z M 58.173,319.435 C 57.488,319.436 56.787,319.095 56.077,318.415 C 55.365,317.736 54.798,316.883 54.382,315.851 C 53.964,314.821 53.753,313.767 53.753,312.686 C 53.753,311.899 53.953,311.297 54.348,310.879 C 54.745,310.461 55.321,310.25 56.07,310.25 C 56.779,310.25 57.439,310.539 58.051,311.119 C 58.663,311.699 59.154,312.524 59.525,313.594 C 59.898,314.662 60.084,315.799 60.084,317.001 C 60.084,318.624 59.449,319.436 58.173,319.435 Z" marker-start="none" marker-end="none" fill-opacity="0.349020"/>
      <path d="M 69.913,320.885 C 71.271,320.885 72.344,320.48 73.131,319.676 C 73.919,318.871 74.312,317.765 74.312,316.357 C 74.312,315.012 74.053,313.742 73.539,312.548 C 73.025,311.352 72.327,310.429 71.447,309.778 C 70.567,309.128 69.573,308.803 68.465,308.803 C 67.091,308.803 66.013,309.207 65.232,310.014 C 64.455,310.823 64.063,311.928 64.063,313.329 C 64.063,314.69 64.327,315.967 64.849,317.166 C 65.37,318.365 66.074,319.284 66.962,319.926 C 67.849,320.565 68.832,320.885 69.913,320.885 Z M 72.445,316.603 C 72.445,317.426 72.222,318.092 71.774,318.605 C 71.328,319.115 70.718,319.371 69.956,319.371 C 69.176,319.371 68.476,319.106 67.858,318.577 C 67.239,318.046 66.76,317.313 66.421,316.37 C 66.08,315.431 65.91,314.385 65.91,313.233 C 65.91,312.297 66.137,311.571 66.593,311.06 C 67.045,310.55 67.698,310.293 68.55,310.293 C 69.294,310.293 69.963,310.555 70.557,311.076 C 71.15,311.599 71.614,312.341 71.946,313.304 C 72.279,314.266 72.445,315.366 72.445,316.603 Z" marker-start="none" marker-end="none" fill-opacity="0.349020"/>
      <path d="M 83.165,308.973 L 84.752,316.4 C 84.895,317.142 84.967,317.66 84.967,317.944 C 84.967,318.395 84.84,318.756 84.586,319.027 C 84.333,319.3 83.928,319.436 83.367,319.435 C 82.732,319.436 82.112,319.221 81.505,318.79 C 80.901,318.362 80.37,317.751 79.908,316.957 C 79.447,316.163 79.097,315.201 78.859,314.071 L 77.777,308.973 L 75.975,308.973 L 78.486,320.735 L 79.977,320.735 L 79.741,318.558 L 79.849,318.558 C 80.536,319.428 81.198,320.046 81.839,320.406 C 82.479,320.768 83.142,320.948 83.83,320.948 C 84.738,320.948 85.456,320.701 85.981,320.203 C 86.507,319.706 86.768,319.009 86.768,318.116 C 86.768,317.55 86.688,316.907 86.524,316.184 L 84.988,308.973 L 83.165,308.973 Z" marker-start="none" marker-end="none" fill-opacity="0.349020"/>
      <path d="M 93.303,308.759 C 91.988,308.759 90.954,309.149 90.204,309.93 C 89.45,310.709 89.076,311.79 89.076,313.17 C 89.076,314.514 89.344,315.804 89.874,317.038 C 90.409,318.272 91.115,319.232 91.995,319.918 C 92.875,320.605 93.844,320.948 94.902,320.948 C 95.998,320.948 96.819,320.711 97.37,320.234 C 97.922,319.758 98.196,319.095 98.196,318.244 C 98.196,316.957 97.604,315.946 96.417,315.211 C 95.226,314.479 93.53,314.114 91.32,314.114 L 90.966,314.114 L 90.922,313.255 C 90.922,312.318 91.142,311.588 91.583,311.06 C 92.022,310.535 92.702,310.271 93.628,310.271 C 94.077,310.271 94.54,310.337 95.016,310.465 C 95.493,310.593 96.082,310.83 96.791,311.173 L 96.791,309.607 C 96.119,309.292 95.527,309.072 95.01,308.947 C 94.496,308.821 93.927,308.759 93.303,308.759 Z M 94.797,319.414 C 94.06,319.414 93.366,319.079 92.72,318.406 C 92.071,317.733 91.576,316.799 91.234,315.605 L 91.362,315.605 C 92.994,315.605 94.242,315.818 95.111,316.243 C 95.981,316.669 96.417,317.288 96.417,318.094 C 96.417,318.475 96.285,318.788 96.024,319.037 C 95.762,319.288 95.353,319.414 94.797,319.414 Z" marker-start="none" marker-end="none" fill-opacity="0.349020"/>
      <path d="M 106.685,308.973 L 108.273,316.4 C 108.417,317.142 108.487,317.66 108.487,317.944 C 108.487,318.395 108.36,318.756 108.105,319.027 C 107.852,319.3 107.446,319.436 106.888,319.435 C 106.251,319.436 105.631,319.221 105.027,318.79 C 104.42,318.362 103.89,317.751 103.429,316.957 C 102.967,316.163 102.618,315.201 102.382,314.071 L 101.298,308.973 L 99.494,308.973 L 102.006,320.735 L 103.498,320.735 L 103.259,318.558 L 103.369,318.558 C 104.055,319.428 104.719,320.046 105.36,320.406 C 106.001,320.768 106.664,320.948 107.35,320.948 C 108.258,320.948 108.977,320.701 109.502,320.203 C 110.027,319.706 110.29,319.009 110.29,318.116 C 110.29,317.55 110.208,316.907 110.042,316.184 L 108.508,308.973 L 106.685,308.973 Z" marker-start="none" marker-end="none" fill-opacity="0.349020"/>
      <path d="M 115.783,310.228 C 116.176,310.228 116.693,310.323 117.327,310.508 L 117.327,309.124 C 117.085,309.023 116.784,308.939 116.427,308.866 C 116.07,308.795 115.783,308.759 115.567,308.759 C 114.674,308.759 113.989,308.972 113.514,309.397 C 113.039,309.823 112.801,310.458 112.801,311.301 C 112.801,311.774 112.864,312.311 112.992,312.911 L 114.355,319.371 L 112.511,319.371 L 112.661,320.154 L 114.645,320.991 L 115.988,323.439 L 117.039,323.439 L 116.449,320.735 L 119.389,320.735 L 119.109,319.371 L 116.18,319.371 L 114.796,312.89 C 114.669,312.268 114.602,311.795 114.602,311.474 C 114.602,311.073 114.706,310.764 114.913,310.551 C 115.121,310.337 115.411,310.228 115.783,310.228 Z" marker-start="none" marker-end="none" fill-opacity="0.349020"/>
     </g>
    </g>
    <g id="Group_40" stroke-linecap="round" fill-rule="nonzero" stroke-linejoin="round" stroke="none" stroke-width="0.857" fill="#000000" stroke-miterlimit="79.8403193612775">
     <g id="Group_41" stroke-opacity="0.349020" fill-opacity="0.349020">
      <path d="M 12.075,360.404 C 12.073,358.895 11.572,357.724 10.567,356.892 C 9.561,356.057 8.146,355.642 6.323,355.642 C 5.564,355.642 4.897,355.693 4.321,355.796 C 3.746,355.9 3.203,356.073 2.695,356.317 L 2.695,358.143 C 3.855,357.54 5.071,357.239 6.344,357.239 C 7.504,357.239 8.423,357.509 9.1,358.049 C 9.782,358.59 10.121,359.333 10.121,360.276 C 10.121,360.834 9.933,361.326 9.559,361.753 C 9.183,362.177 8.483,362.68 7.459,363.259 C 6.378,363.867 5.63,364.475 5.21,365.082 C 4.793,365.692 4.584,366.41 4.584,367.241 C 4.584,368.578 5.057,369.667 6.002,370.506 C 6.946,371.348 8.186,371.768 9.724,371.768 C 10.433,371.768 11.091,371.7 11.705,371.564 C 12.316,371.428 12.96,371.197 13.641,370.867 L 12.932,369.257 C 12.46,369.53 11.931,369.744 11.344,369.902 C 10.758,370.059 10.218,370.137 9.724,370.137 C 8.766,370.137 7.994,369.888 7.412,369.391 C 6.829,368.894 6.538,368.22 6.538,367.369 C 6.538,366.982 6.598,366.652 6.721,366.376 C 6.843,366.1 7.034,365.841 7.3,365.598 C 7.565,365.354 8.071,365.013 8.823,364.578 C 9.875,363.951 10.585,363.457 10.953,363.097 C 11.32,362.74 11.601,362.345 11.79,361.914 C 11.979,361.481 12.073,360.978 12.075,360.404 Z" marker-start="none" marker-end="none" fill-opacity="0.349020"/>
      <path d="M 20.185,367.83 C 20.859,367.83 21.451,367.649 21.962,367.289 C 22.473,366.928 22.862,366.42 23.126,365.77 L 23.266,365.77 L 23.983,367.616 L 25.328,367.616 L 21.722,350.575 L 19.94,350.575 L 21.024,355.728 C 21.088,356.049 21.292,356.84 21.635,358.098 L 21.549,358.098 C 20.87,357.232 20.207,356.607 19.563,356.22 C 18.92,355.833 18.256,355.642 17.568,355.642 C 16.567,355.642 15.781,355.989 15.212,356.687 C 14.644,357.383 14.36,358.361 14.36,359.612 C 14.36,361.128 14.619,362.53 15.137,363.817 C 15.657,365.104 16.358,366.095 17.242,366.79 C 18.124,367.483 19.106,367.83 20.185,367.83 Z M 18.126,357.132 C 18.784,357.132 19.465,357.461 20.164,358.12 C 20.866,358.778 21.432,359.627 21.865,360.661 C 22.298,361.701 22.514,362.772 22.514,363.883 C 22.514,364.635 22.32,365.226 21.932,365.662 C 21.54,366.099 20.996,366.317 20.291,366.317 C 19.571,366.317 18.896,366.016 18.265,365.411 C 17.635,364.808 17.135,363.973 16.764,362.912 C 16.392,361.849 16.205,360.735 16.205,359.568 C 16.205,357.943 16.845,357.132 18.126,357.132 Z" marker-start="none" marker-end="none" fill-opacity="0.349020"/>
      <path d="M 30.829,367.616 L 29.22,360.158 C 29.093,359.523 29.027,359.023 29.027,358.665 C 29.027,357.645 29.552,357.132 30.604,357.132 C 31.235,357.132 31.853,357.349 32.462,357.775 C 33.069,358.206 33.606,358.821 34.071,359.621 C 34.535,360.423 34.89,361.389 35.133,362.518 L 36.206,367.616 L 37.987,367.616 L 35.508,355.856 L 34.017,355.856 L 34.253,358.034 L 34.123,358.034 C 33.423,357.141 32.755,356.517 32.117,356.167 C 31.481,355.816 30.823,355.642 30.143,355.642 C 29.228,355.642 28.508,355.889 27.986,356.386 C 27.463,356.883 27.204,357.594 27.204,358.518 C 27.204,358.961 27.283,359.575 27.44,360.363 L 29.006,367.616 L 30.829,367.616 Z" marker-start="none" marker-end="none" fill-opacity="0.349020"/>
      <path d="M 45.529,367.83 C 46.187,367.83 46.775,367.652 47.289,367.299 C 47.804,366.945 48.206,366.436 48.491,365.77 L 48.609,365.77 L 49.329,367.616 L 50.692,367.616 L 48.192,355.856 L 46.764,355.856 L 47.042,358.098 L 46.957,358.098 C 45.676,356.459 44.328,355.642 42.914,355.642 C 41.918,355.642 41.138,355.995 40.573,356.703 C 40.008,357.412 39.725,358.381 39.725,359.612 C 39.725,361.098 39.979,362.481 40.487,363.753 C 40.993,365.026 41.696,366.024 42.591,366.747 C 43.484,367.468 44.463,367.83 45.529,367.83 Z M 43.492,357.132 C 44.186,357.132 44.876,357.464 45.562,358.125 C 46.249,358.787 46.808,359.647 47.237,360.711 C 47.666,361.772 47.88,362.836 47.88,363.902 C 47.88,364.64 47.68,365.226 47.279,365.662 C 46.878,366.099 46.353,366.317 45.702,366.317 C 44.958,366.317 44.266,366.01 43.625,365.394 C 42.985,364.779 42.481,363.946 42.118,362.897 C 41.755,361.841 41.571,360.735 41.571,359.568 C 41.571,358.754 41.737,358.143 42.075,357.738 C 42.412,357.334 42.886,357.132 43.492,357.132 Z" marker-start="none" marker-end="none" fill-opacity="0.349020"/>
      <path d="M 59.159,367.83 C 59.649,367.83 60.08,367.78 60.445,367.678 L 60.06,366.071 C 59.679,366.163 59.305,366.21 58.933,366.21 C 58.28,366.21 57.672,365.995 57.104,365.567 C 56.532,365.137 56.036,364.541 55.612,363.781 C 55.185,363.018 54.871,362.172 54.672,361.242 L 53.523,355.856 L 51.722,355.856 L 54.232,367.616 L 55.724,367.616 L 55.487,365.437 L 55.596,365.437 C 56.109,366.117 56.534,366.604 56.871,366.903 C 57.207,367.198 57.56,367.427 57.927,367.589 C 58.298,367.749 58.706,367.83 59.159,367.83 Z" marker-start="none" marker-end="none" fill-opacity="0.349020"/>
      <path d="M 64.63,355.642 C 63.315,355.642 62.28,356.031 61.531,356.81 C 60.779,357.589 60.402,358.671 60.402,360.051 C 60.402,361.396 60.669,362.685 61.203,363.919 C 61.735,365.153 62.442,366.112 63.323,366.801 C 64.202,367.487 65.171,367.83 66.231,367.83 C 67.323,367.83 68.147,367.591 68.697,367.118 C 69.249,366.642 69.525,365.977 69.525,365.125 C 69.525,363.839 68.931,362.828 67.743,362.093 C 66.555,361.362 64.856,360.995 62.645,360.995 L 62.291,360.995 L 62.249,360.137 C 62.249,359.2 62.468,358.469 62.909,357.943 C 63.349,357.418 64.031,357.153 64.952,357.153 C 65.404,357.153 65.867,357.219 66.343,357.349 C 66.818,357.476 67.41,357.712 68.118,358.055 L 68.118,356.487 C 67.446,356.174 66.853,355.954 66.336,355.829 C 65.822,355.704 65.253,355.642 64.63,355.642 Z M 66.123,366.296 C 65.385,366.296 64.695,365.96 64.046,365.288 C 63.399,364.615 62.903,363.679 62.561,362.486 L 62.689,362.486 C 64.32,362.486 65.571,362.699 66.439,363.125 C 67.309,363.55 67.743,364.168 67.743,364.976 C 67.743,365.354 67.613,365.671 67.351,365.921 C 67.09,366.171 66.681,366.296 66.123,366.296 Z" marker-start="none" marker-end="none" fill-opacity="0.349020"/>
      <path d="M 80.029,362.381 L 78.645,355.856 L 76.819,355.856 L 80.136,371.543 L 83.569,371.543 C 86.756,371.543 88.355,370.232 88.355,367.616 C 88.355,365.125 87.04,363.52 84.407,362.798 L 86.971,355.856 L 84.974,355.856 L 82.731,362.381 L 80.029,362.381 Z M 81.605,369.944 C 80.876,366.41 80.461,364.411 80.361,363.946 L 82.164,363.946 C 83.543,363.946 84.607,364.251 85.351,364.857 C 86.094,365.466 86.467,366.337 86.467,367.476 C 86.467,368.343 86.226,368.97 85.742,369.36 C 85.258,369.749 84.474,369.944 83.388,369.944 L 81.605,369.944 Z" marker-start="none" marker-end="none" fill-opacity="0.349020"/>
      <path d="M 95.299,367.765 C 96.657,367.765 97.729,367.363 98.516,366.558 C 99.302,365.754 99.698,364.646 99.698,363.238 C 99.698,361.894 99.438,360.623 98.926,359.428 C 98.41,358.234 97.712,357.311 96.833,356.659 C 95.952,356.008 94.958,355.683 93.849,355.683 C 92.478,355.683 91.399,356.086 90.618,356.896 C 89.84,357.704 89.447,358.811 89.447,360.211 C 89.447,361.571 89.711,362.85 90.233,364.048 C 90.756,365.247 91.461,366.164 92.347,366.804 C 93.234,367.444 94.218,367.765 95.299,367.765 Z M 97.83,363.486 C 97.83,364.307 97.608,364.975 97.158,365.485 C 96.713,365.997 96.107,366.253 95.341,366.253 C 94.56,366.253 93.862,365.988 93.243,365.458 C 92.624,364.93 92.144,364.195 91.805,363.255 C 91.465,362.313 91.296,361.266 91.296,360.115 C 91.296,359.177 91.525,358.453 91.977,357.943 C 92.431,357.431 93.084,357.176 93.935,357.176 C 94.679,357.176 95.349,357.436 95.941,357.957 C 96.535,358.48 96.998,359.224 97.331,360.187 C 97.664,361.148 97.83,362.247 97.83,363.486 Z" marker-start="none" marker-end="none" fill-opacity="0.349020"/>
      <path d="M 107.627,367.765 C 108.987,367.765 110.058,367.363 110.846,366.558 C 111.633,365.754 112.027,364.646 112.027,363.238 C 112.027,361.894 111.768,360.623 111.253,359.428 C 110.738,358.234 110.041,357.311 109.161,356.659 C 108.28,356.008 107.286,355.683 106.177,355.683 C 104.805,355.683 103.728,356.086 102.947,356.896 C 102.169,357.704 101.777,358.811 101.777,360.211 C 101.777,361.571 102.04,362.85 102.562,364.048 C 103.083,365.247 103.789,366.164 104.677,366.804 C 105.564,367.444 106.546,367.765 107.627,367.765 Z M 110.158,363.486 C 110.158,364.307 109.934,364.975 109.488,365.485 C 109.042,365.997 108.435,366.253 107.67,366.253 C 106.889,366.253 106.19,365.988 105.572,365.458 C 104.952,364.93 104.473,364.195 104.134,363.255 C 103.793,362.313 103.624,361.266 103.624,360.115 C 103.624,359.177 103.851,358.453 104.306,357.943 C 104.759,357.431 105.413,357.176 106.264,357.176 C 107.009,357.176 107.676,357.436 108.271,357.957 C 108.866,358.48 109.327,359.224 109.66,360.187 C 109.993,361.148 110.158,362.247 110.158,363.486 Z" marker-start="none" marker-end="none" fill-opacity="0.349020"/>
      <path d="M 117.295,357.111 C 117.687,357.111 118.202,357.203 118.839,357.39 L 118.839,356.006 C 118.595,355.905 118.296,355.82 117.939,355.747 C 117.581,355.676 117.295,355.642 117.078,355.642 C 116.185,355.642 115.501,355.853 115.023,356.28 C 114.55,356.706 114.31,357.34 114.31,358.184 C 114.31,358.656 114.374,359.193 114.504,359.793 L 115.866,366.253 L 114.021,366.253 L 114.172,367.036 L 116.156,367.873 L 117.498,370.32 L 118.55,370.32 L 117.96,367.616 L 120.9,367.616 L 120.62,366.253 L 117.692,366.253 L 116.307,359.772 C 116.18,359.15 116.113,358.676 116.113,358.355 C 116.113,357.954 116.217,357.648 116.425,357.433 C 116.632,357.219 116.923,357.111 117.295,357.111 Z" marker-start="none" marker-end="none" fill-opacity="0.349020"/>
     </g>
    </g>
    <g id="Group_42" stroke-linecap="round" fill-rule="nonzero" stroke-linejoin="round" stroke="none" stroke-width="0.857" fill="#000000" stroke-miterlimit="79.8403193612775">
     <g id="Group_43" stroke-opacity="0.349020" fill-opacity="0.349020">
      <path d="M 51.155,43.341 C 49.908,43.341 48.796,42.995 47.814,42.301 C 46.829,41.604 46.049,40.59 45.473,39.249 C 44.897,37.906 44.609,36.446 44.609,34.865 C 44.609,33.528 44.958,32.459 45.654,31.662 C 46.354,30.864 47.313,30.467 48.539,30.467 C 49.532,30.467 50.682,30.669 51.991,31.078 L 51.991,29.479 C 51.378,29.258 50.789,29.098 50.232,28.996 C 49.674,28.896 49.001,28.844 48.214,28.844 C 46.484,28.844 45.123,29.379 44.137,30.45 C 43.151,31.522 42.657,32.976 42.656,34.822 C 42.657,36.688 43.034,38.426 43.789,40.032 C 44.543,41.638 45.556,42.864 46.831,43.707 C 48.104,44.551 49.545,44.973 51.155,44.973 C 52.566,44.973 53.808,44.685 54.888,44.114 L 54.148,42.602 C 53.162,43.096 52.164,43.341 51.155,43.341 Z" marker-start="none" marker-end="none" fill-opacity="0.349020"/>
      <path d="M 56.316,29.06 L 54.513,29.06 L 58.076,45.756 L 59.878,45.756 L 56.316,29.06 Z" marker-start="none" marker-end="none" fill-opacity="0.349020"/>
      <path d="M 64.761,28.844 C 63.445,28.844 62.411,29.235 61.659,30.015 C 60.909,30.796 60.533,31.875 60.533,33.255 C 60.533,34.6 60.799,35.89 61.334,37.124 C 61.865,38.358 62.572,39.319 63.451,40.003 C 64.331,40.691 65.301,41.035 66.359,41.035 C 67.455,41.035 68.277,40.796 68.828,40.32 C 69.377,39.845 69.653,39.181 69.653,38.332 C 69.653,37.042 69.061,36.033 67.872,35.301 C 66.685,34.566 64.988,34.199 62.774,34.199 L 62.42,34.199 L 62.379,33.342 C 62.379,32.405 62.6,31.673 63.039,31.149 C 63.48,30.622 64.158,30.357 65.083,30.357 C 65.535,30.357 65.997,30.425 66.471,30.551 C 66.948,30.68 67.541,30.917 68.246,31.259 L 68.246,29.694 C 67.576,29.379 66.982,29.16 66.468,29.033 C 65.951,28.908 65.383,28.844 64.761,28.844 Z M 66.251,39.5 C 65.516,39.5 64.824,39.165 64.176,38.492 C 63.529,37.819 63.034,36.886 62.689,35.691 L 62.819,35.691 C 64.45,35.691 65.7,35.903 66.569,36.33 C 67.438,36.755 67.872,37.373 67.872,38.179 C 67.872,38.559 67.742,38.874 67.481,39.124 C 67.22,39.374 66.81,39.5 66.251,39.5 Z" marker-start="none" marker-end="none" fill-opacity="0.349020"/>
      <path d="M 77.175,41.035 C 77.834,41.035 78.42,40.858 78.934,40.503 C 79.45,40.149 79.852,39.64 80.138,38.975 L 80.255,38.975 L 80.974,40.82 L 82.336,40.82 L 79.836,29.06 L 78.409,29.06 L 78.688,31.303 L 78.604,31.303 C 77.321,29.665 75.973,28.844 74.558,28.844 C 73.563,28.844 72.783,29.199 72.219,29.908 C 71.653,30.617 71.371,31.585 71.371,32.819 C 71.371,34.304 71.625,35.685 72.13,36.958 C 72.64,38.229 73.341,39.228 74.235,39.95 C 75.129,40.671 76.108,41.035 77.175,41.035 Z M 75.137,30.338 C 75.831,30.338 76.521,30.668 77.206,31.33 C 77.895,31.992 78.452,32.853 78.881,33.916 C 79.312,34.978 79.525,36.041 79.525,37.108 C 79.525,37.845 79.326,38.429 78.925,38.864 C 78.523,39.304 77.998,39.524 77.35,39.522 C 76.603,39.524 75.911,39.215 75.273,38.599 C 74.631,37.984 74.127,37.151 73.764,36.098 C 73.399,35.047 73.217,33.939 73.217,32.772 C 73.217,31.957 73.384,31.348 73.721,30.944 C 74.056,30.54 74.529,30.338 75.137,30.338 Z" marker-start="none" marker-end="none" fill-opacity="0.349020"/>
      <path d="M 90.803,41.035 C 91.296,41.035 91.725,40.983 92.09,40.885 L 91.704,39.276 C 91.325,39.369 90.95,39.412 90.578,39.412 C 89.926,39.412 89.317,39.2 88.749,38.77 C 88.177,38.342 87.681,37.746 87.256,36.984 C 86.83,36.223 86.516,35.374 86.316,34.445 L 85.168,29.06 L 83.365,29.06 L 85.878,40.82 L 87.369,40.82 L 87.132,38.643 L 87.242,38.643 C 87.754,39.321 88.18,39.81 88.517,40.107 C 88.853,40.402 89.204,40.633 89.574,40.793 C 89.942,40.955 90.352,41.035 90.803,41.035 Z" marker-start="none" marker-end="none" fill-opacity="0.349020"/>
      <path d="M 105.866,34.051 L 100.547,34.051 L 97.916,29.06 L 95.89,29.06 L 104.462,44.749 L 106.329,44.749 L 108.303,29.06 L 106.477,29.06 L 105.866,34.051 Z M 105.674,35.724 L 105.299,38.931 C 105.126,40.214 105.022,41.464 104.989,42.687 C 104.721,42.058 104.435,41.43 104.124,40.809 C 103.811,40.188 102.92,38.492 101.447,35.724 L 105.674,35.724 Z" marker-start="none" marker-end="none" fill-opacity="0.349020"/>
      <path d="M 111.759,29.06 L 109.957,29.06 L 113.518,45.756 L 115.321,45.756 L 111.759,29.06 Z" marker-start="none" marker-end="none" fill-opacity="0.349020"/>
      <path d="M 117.339,29.06 L 115.535,29.06 L 119.098,45.756 L 120.9,45.756 L 117.339,29.06 Z" marker-start="none" marker-end="none" fill-opacity="0.349020"/>
     </g>
    </g>
    <g id="Group_44" stroke-linecap="round" fill-rule="nonzero" stroke-linejoin="round" stroke="none" stroke-width="0.857" fill="#000000" stroke-miterlimit="79.8403193612775">
     <g id="Group_45" stroke-opacity="0.349020" fill-opacity="0.349020">
      <path d="M 22.477,256.833 C 21.232,256.833 20.12,256.486 19.135,255.791 C 18.151,255.099 17.37,254.08 16.797,252.739 C 16.219,251.398 15.932,249.937 15.932,248.356 C 15.932,247.018 16.28,245.951 16.978,245.154 C 17.675,244.356 18.637,243.956 19.86,243.956 C 20.853,243.956 22.007,244.162 23.315,244.568 L 23.315,242.97 C 22.699,242.748 22.112,242.587 21.553,242.486 C 20.996,242.387 20.323,242.337 19.537,242.337 C 17.806,242.337 16.446,242.871 15.46,243.94 C 14.474,245.01 13.98,246.47 13.98,248.314 C 13.98,250.18 14.356,251.916 15.112,253.523 C 15.867,255.127 16.88,256.353 18.153,257.197 C 19.428,258.041 20.868,258.464 22.477,258.464 C 23.888,258.464 25.133,258.178 26.212,257.604 L 25.47,256.094 C 24.484,256.586 23.486,256.833 22.477,256.833 Z" marker-start="none" marker-end="none" fill-opacity="0.349020"/>
      <path d="M 27.638,242.551 L 25.836,242.551 L 29.399,259.245 L 31.2,259.245 L 27.638,242.551 Z" marker-start="none" marker-end="none" fill-opacity="0.349020"/>
      <path d="M 36.083,242.337 C 34.767,242.337 33.734,242.727 32.983,243.506 C 32.232,244.286 31.856,245.366 31.856,246.747 C 31.856,248.093 32.122,249.379 32.655,250.615 C 33.188,251.848 33.895,252.807 34.774,253.498 C 35.652,254.182 36.622,254.527 37.681,254.527 C 38.777,254.527 39.6,254.288 40.15,253.812 C 40.701,253.335 40.977,252.675 40.977,251.823 C 40.977,250.534 40.382,249.524 39.196,248.791 C 38.008,248.057 36.309,247.69 34.097,247.69 L 33.745,247.69 L 33.701,246.833 C 33.701,245.896 33.921,245.164 34.361,244.638 C 34.799,244.112 35.482,243.849 36.405,243.849 C 36.855,243.849 37.319,243.913 37.794,244.044 C 38.27,244.171 38.864,244.408 39.571,244.751 L 39.571,243.184 C 38.898,242.869 38.305,242.649 37.791,242.523 C 37.274,242.399 36.705,242.337 36.083,242.337 Z M 37.575,252.992 C 36.838,252.992 36.146,252.655 35.499,251.982 C 34.851,251.311 34.355,250.376 34.012,249.182 L 34.141,249.182 C 35.773,249.182 37.022,249.394 37.892,249.82 C 38.761,250.246 39.196,250.864 39.196,251.673 C 39.196,252.051 39.066,252.365 38.803,252.616 C 38.542,252.866 38.133,252.992 37.575,252.992 Z" marker-start="none" marker-end="none" fill-opacity="0.349020"/>
      <path d="M 48.498,254.527 C 49.156,254.527 49.743,254.348 50.256,253.995 C 50.774,253.64 51.173,253.131 51.46,252.466 L 51.577,252.466 L 52.296,254.311 L 53.659,254.311 L 51.159,242.551 L 49.732,242.551 L 50.011,244.794 L 49.926,244.794 C 48.644,243.155 47.296,242.337 45.881,242.337 C 44.886,242.337 44.107,242.692 43.541,243.397 C 42.976,244.107 42.693,245.076 42.693,246.306 C 42.693,247.794 42.948,249.175 43.454,250.447 C 43.962,251.722 44.664,252.719 45.558,253.442 C 46.452,254.165 47.432,254.527 48.498,254.527 Z M 46.459,243.828 C 47.153,243.828 47.843,244.159 48.53,244.821 C 49.217,245.483 49.775,246.344 50.204,247.406 C 50.633,248.47 50.846,249.533 50.846,250.599 C 50.846,251.336 50.647,251.923 50.246,252.359 C 49.847,252.796 49.321,253.013 48.669,253.013 C 47.926,253.013 47.234,252.706 46.594,252.091 C 45.952,251.476 45.45,250.642 45.087,249.591 C 44.72,248.538 44.54,247.43 44.54,246.264 C 44.54,245.449 44.706,244.838 45.044,244.434 C 45.379,244.029 45.852,243.828 46.459,243.828 Z" marker-start="none" marker-end="none" fill-opacity="0.349020"/>
      <path d="M 62.126,254.527 C 62.618,254.527 63.048,254.475 63.412,254.376 L 63.027,252.766 C 62.647,252.858 62.272,252.906 61.9,252.906 C 61.248,252.906 60.638,252.691 60.07,252.264 C 59.501,251.833 59.004,251.238 58.578,250.476 C 58.152,249.715 57.839,248.869 57.639,247.938 L 56.491,242.551 L 54.688,242.551 L 57.2,254.311 L 58.692,254.311 L 58.455,252.133 L 58.565,252.133 C 59.077,252.813 59.503,253.301 59.84,253.598 C 60.176,253.894 60.529,254.123 60.896,254.285 C 61.265,254.445 61.674,254.527 62.126,254.527 Z" marker-start="none" marker-end="none" fill-opacity="0.349020"/>
      <path d="M 77.276,242.551 L 69.388,242.551 L 72.704,258.239 L 80.593,258.239 L 80.248,256.598 L 74.174,256.598 L 73.124,251.564 L 78.778,251.564 L 78.466,249.934 L 72.791,249.934 L 71.569,244.182 L 77.63,244.182 L 77.276,242.551 Z" marker-start="none" marker-end="none" fill-opacity="0.349020"/>
      <path d="M 87.524,242.551 L 89.111,249.976 C 89.254,250.72 89.326,251.235 89.326,251.521 C 89.326,251.973 89.199,252.333 88.945,252.607 C 88.692,252.877 88.285,253.013 87.726,253.013 C 87.091,253.013 86.47,252.8 85.864,252.368 C 85.262,251.94 84.727,251.329 84.266,250.534 C 83.803,249.741 83.457,248.777 83.22,247.649 L 82.136,242.551 L 80.334,242.551 L 82.844,254.311 L 84.336,254.311 L 84.1,252.133 L 84.207,252.133 C 84.894,253.007 85.556,253.623 86.198,253.984 C 86.838,254.346 87.501,254.527 88.188,254.527 C 89.096,254.527 89.812,254.277 90.34,253.779 C 90.865,253.282 91.128,252.587 91.128,251.694 C 91.128,251.128 91.045,250.486 90.881,249.762 L 89.347,242.551 L 87.524,242.551 Z" marker-start="none" marker-end="none" fill-opacity="0.349020"/>
      <path d="M 96.623,243.808 C 97.015,243.808 97.53,243.899 98.166,244.086 L 98.166,242.701 C 97.923,242.601 97.622,242.515 97.266,242.443 C 96.908,242.372 96.623,242.337 96.407,242.337 C 95.513,242.337 94.827,242.549 94.352,242.976 C 93.876,243.401 93.638,244.036 93.638,244.88 C 93.638,245.354 93.704,245.888 93.832,246.49 L 95.195,252.949 L 93.349,252.949 L 93.5,253.732 L 95.485,254.57 L 96.825,257.014 L 97.876,257.014 L 97.288,254.311 L 100.225,254.311 L 99.948,252.949 L 97.018,252.949 L 95.634,246.47 C 95.506,245.844 95.444,245.374 95.444,245.053 C 95.444,244.651 95.546,244.343 95.752,244.128 C 95.96,243.913 96.25,243.808 96.623,243.808 Z" marker-start="none" marker-end="none" fill-opacity="0.349020"/>
      <path d="M 107.578,254.527 C 108.071,254.527 108.501,254.475 108.864,254.376 L 108.479,252.766 C 108.1,252.858 107.725,252.906 107.351,252.906 C 106.701,252.906 106.091,252.691 105.521,252.264 C 104.953,251.833 104.457,251.238 104.03,250.476 C 103.605,249.715 103.293,248.869 103.091,247.938 L 101.944,242.551 L 100.14,242.551 L 102.652,254.311 L 104.143,254.311 L 103.908,252.133 L 104.016,252.133 C 104.529,252.813 104.955,253.301 105.291,253.598 C 105.627,253.894 105.979,254.123 106.349,254.285 C 106.716,254.445 107.126,254.527 107.578,254.527 Z" marker-start="none" marker-end="none" fill-opacity="0.349020"/>
      <path d="M 109.261,254.311 L 111.066,254.311 L 111.857,248.465 C 111.931,247.97 112,247.243 112.067,246.28 C 112.134,245.319 112.17,244.543 112.17,243.956 L 112.234,243.956 C 112.485,244.578 112.796,245.295 113.168,246.102 C 113.54,246.913 113.814,247.469 113.994,247.776 L 117.48,254.311 L 119.39,254.311 L 111.923,240.555 C 111.258,239.326 110.598,238.471 109.949,237.991 C 109.298,237.511 108.513,237.273 107.598,237.273 C 107.084,237.273 106.583,237.348 106.096,237.495 L 106.096,238.945 C 106.547,238.817 107.017,238.754 107.502,238.754 C 108.09,238.754 108.592,238.932 109.008,239.295 C 109.427,239.656 109.837,240.191 110.227,240.899 L 111.043,242.358 L 109.261,254.311 Z" marker-start="none" marker-end="none" fill-opacity="0.349020"/>
     </g>
    </g>
    <mask id="TranspMask_12">
     <rect x="-10%" y="-10%" width="120%" height="120%" fill="#242424" stroke="none"/>
    </mask>
    <g id="Group_46" stroke-linecap="round" stroke-linejoin="round" stroke="none" fill="#000000" mask="url(#TranspMask_12)">
     <path d="M 134.344,217.759 L 134.344,281.03 C 134.344,287.916 138.108,293.506 142.744,293.506 L 142.745,293.506 C 142.938,293.506 143.13,293.495 143.32,293.477 C 138.95,293.037 135.495,287.628 135.495,281.03 L 135.495,217.759 C 135.495,211.16 138.95,205.751 143.32,205.311 C 143.13,205.293 142.938,205.283 142.745,205.283 L 142.744,205.283 C 138.108,205.283 134.344,210.873 134.344,217.759 Z" fill-rule="nonzero" stroke-width="0.857" marker-start="none" marker-end="none" stroke-miterlimit="79.8403193612775"/>
     <path d="M 134.345,69.155 L 134.345,124.104 L 134.345,141.287 L 134.345,185.57 C 134.345,192.456 138.109,198.046 142.745,198.046 L 142.746,198.046 C 142.939,198.046 143.131,198.036 143.321,198.017 C 138.951,197.577 135.496,192.169 135.496,185.57 L 135.496,69.155 C 135.496,62.556 138.951,57.147 143.321,56.707 C 143.131,56.689 142.939,56.679 142.746,56.679 L 142.745,56.679 C 138.109,56.679 134.345,62.269 134.345,69.155 Z" fill-rule="nonzero" stroke-width="0.857" marker-start="none" marker-end="none" stroke-miterlimit="79.8403193612775"/>
     <path d="M 134.452,121.324 L 134.452,121.927 C 134.37,125.045 132.988,126.794 130.509,127.385 C 132.988,127.974 134.37,129.724 134.452,132.841 L 134.452,133.446 C 134.456,133.239 134.456,133.037 134.452,132.841 L 134.452,121.927 C 134.456,121.731 134.456,121.529 134.452,121.324 Z" stroke-width="0.221" marker-start="none" marker-end="none" stroke-miterlimit="79.8403193612775"/>
     <path d="M 134.453,243.334 L 134.453,243.937 C 134.371,247.055 132.989,248.804 130.51,249.395 C 132.989,249.985 134.371,251.735 134.453,254.852 L 134.453,255.456 C 134.457,255.249 134.457,255.048 134.453,254.852 L 134.453,243.937 C 134.457,243.742 134.457,243.54 134.453,243.334 Z" stroke-width="0.221" marker-start="none" marker-end="none" stroke-miterlimit="79.8403193612775"/>
    </g>
   </g>
  </g>
 </g>
</svg>
